<svg xmlns="http://www.w3.org/2000/svg" width="28" height="28" viewBox="0 0 28 28" fill="none">
  <path fill-rule="evenodd" clip-rule="evenodd" d="M25.7255 6.08262C25.6817 5.47012 25.2442 4.98887 24.6317 4.81387L23.3192 4.50762C21.3067 4.02637 19.3817 3.28262 17.5442 2.40762L14.8755 1.05137C14.5255 0.876369 14.1317 0.876369 13.7817 1.00762L9.71298 2.75762C8.18173 3.41387 6.56298 3.93887 4.94423 4.37637L3.28173 4.81387C2.66923 4.98887 2.27548 5.47012 2.23173 6.08262C1.70673 12.8639 4.55048 19.4264 9.84423 23.6264L14.0442 26.9951C14.2192 27.1264 14.438 27.1264 14.613 26.9951L18.463 23.8014C23.6692 19.4701 26.3817 12.8201 25.7255 6.08262ZM18.5505 14.0889L14.263 18.3764L9.97548 14.0889C8.79423 12.9076 8.79423 10.9826 9.97548 9.80137C11.1567 8.62012 13.0817 8.62012 14.263 9.80137C15.4442 8.62012 17.3692 8.62012 18.5505 9.80137C19.7317 11.0264 19.7317 12.9076 18.5505 14.0889Z" fill="black"/>
  <path fill-rule="evenodd" clip-rule="evenodd" d="M25.7255 6.08262C25.6817 5.47012 25.2442 4.98887 24.6317 4.81387L23.3192 4.50762C21.3067 4.02637 19.3817 3.28262 17.5442 2.40762L14.8755 1.05137C14.5255 0.876369 14.1317 0.876369 13.7817 1.00762L9.71298 2.75762C8.18173 3.41387 6.56298 3.93887 4.94423 4.37637L3.28173 4.81387C2.66923 4.98887 2.27548 5.47012 2.23173 6.08262C1.70673 12.8639 4.55048 19.4264 9.84423 23.6264L14.0442 26.9951C14.2192 27.1264 14.438 27.1264 14.613 26.9951L18.463 23.8014C23.6692 19.4701 26.3817 12.8201 25.7255 6.08262ZM18.5505 14.0889L14.263 18.3764L9.97548 14.0889C8.79423 12.9076 8.79423 10.9826 9.97548 9.80137C11.1567 8.62012 13.0817 8.62012 14.263 9.80137C15.4442 8.62012 17.3692 8.62012 18.5505 9.80137C19.7317 11.0264 19.7317 12.9076 18.5505 14.0889Z" fill="url(#paint0_linear_2445_7850)"/>
  <defs>
    <linearGradient id="paint0_linear_2445_7850" x1="9.18648" y1="21.302" x2="8.9064" y2="7.46979" gradientUnits="userSpaceOnUse">
      <stop stop-color="#5382CA"/>
      <stop offset="0.97855" stop-color="#5492DA"/>
    </linearGradient>
  </defs>
</svg>