<svg xmlns="http://www.w3.org/2000/svg" width="28" height="28" viewBox="0 0 28 28" fill="none">
  <path d="M3.39924 16.625H5.68737V21C5.68737 21.7262 6.27362 22.3125 6.99987 22.3125H8.31237V27.125C8.31237 27.3656 8.50924 27.5625 8.74987 27.5625H18.4492C18.7074 27.5625 18.9086 27.3394 18.8824 27.0856C18.773 26.0006 18.6461 23.2575 19.753 20.6631C20.033 20.0112 20.3349 19.3112 20.628 18.6069C21.2405 17.1412 22.0324 15.7587 22.7061 14.3194C24.1805 11.165 23.7736 7.46812 22.0061 4.74688L21.1967 5.59562L20.0067 6.8425C20.4267 7.55125 20.7024 8.4175 20.7024 9.61187C20.7024 11.6812 19.5167 14.7 18.5761 15.0456C17.4299 15.4656 16.8042 13.4531 15.6449 12.775C13.3699 11.445 11.0249 13.2694 9.70362 12.3812C8.15049 11.3356 8.49612 7.52063 10.4605 5.7575C11.8386 4.51937 12.9717 4.165 14.5599 4.06437C15.798 3.98563 17.5217 4.41438 18.5324 5.18L20.1249 3.955L20.8949 3.36C19.4205 1.84625 17.3949 0.875 14.9711 0.875C14.7524 0.875 14.5249 0.88375 14.2974 0.90125C13.7417 0.93625 13.1686 1.02813 12.578 1.1725C4.70299 3.0975 5.24987 12.25 5.24987 12.25L3.02299 15.9644C2.84799 16.2531 3.05799 16.625 3.39924 16.625Z" fill="black"/>
  <path d="M3.39924 16.625H5.68737V21C5.68737 21.7262 6.27362 22.3125 6.99987 22.3125H8.31237V27.125C8.31237 27.3656 8.50924 27.5625 8.74987 27.5625H18.4492C18.7074 27.5625 18.9086 27.3394 18.8824 27.0856C18.773 26.0006 18.6461 23.2575 19.753 20.6631C20.033 20.0112 20.3349 19.3112 20.628 18.6069C21.2405 17.1412 22.0324 15.7587 22.7061 14.3194C24.1805 11.165 23.7736 7.46812 22.0061 4.74688L21.1967 5.59562L20.0067 6.8425C20.4267 7.55125 20.7024 8.4175 20.7024 9.61187C20.7024 11.6812 19.5167 14.7 18.5761 15.0456C17.4299 15.4656 16.8042 13.4531 15.6449 12.775C13.3699 11.445 11.0249 13.2694 9.70362 12.3812C8.15049 11.3356 8.49612 7.52063 10.4605 5.7575C11.8386 4.51937 12.9717 4.165 14.5599 4.06437C15.798 3.98563 17.5217 4.41438 18.5324 5.18L20.1249 3.955L20.8949 3.36C19.4205 1.84625 17.3949 0.875 14.9711 0.875C14.7524 0.875 14.5249 0.88375 14.2974 0.90125C13.7417 0.93625 13.1686 1.02813 12.578 1.1725C4.70299 3.0975 5.24987 12.25 5.24987 12.25L3.02299 15.9644C2.84799 16.2531 3.05799 16.625 3.39924 16.625Z" fill="url(#paint0_linear_2445_7902)"/>
  <path d="M13.6675 6.90235C13.51 6.83235 13.3263 6.86297 13.1994 6.9811C13.0331 7.13422 13.0156 7.38797 13.1556 7.56735L15.3388 10.3192C15.5181 10.5467 15.8638 10.5642 16.065 10.3542L24.9069 1.07047C24.99 0.987346 24.8763 0.856096 24.78 0.926096L15.7894 7.85172L13.6675 6.90672V6.90235Z" fill="black"/>
  <path d="M13.6675 6.90235C13.51 6.83235 13.3263 6.86297 13.1994 6.9811C13.0331 7.13422 13.0156 7.38797 13.1556 7.56735L15.3388 10.3192C15.5181 10.5467 15.8638 10.5642 16.065 10.3542L24.9069 1.07047C24.99 0.987346 24.8763 0.856096 24.78 0.926096L15.7894 7.85172L13.6675 6.90672V6.90235Z" fill="url(#paint1_linear_2445_7902)"/>
  <defs>
    <linearGradient id="paint0_linear_2445_7902" x1="2.94795" y1="15.0059" x2="14.5834" y2="14.8186" gradientUnits="userSpaceOnUse">
      <stop stop-color="#5877A7"/>
      <stop offset="0.97855" stop-color="#5A92D3"/>
    </linearGradient>
    <linearGradient id="paint1_linear_2445_7902" x1="13.0546" y1="5.98682" x2="19.7435" y2="5.8146" gradientUnits="userSpaceOnUse">
      <stop stop-color="#5877A7"/>
      <stop offset="0.97855" stop-color="#5A92D3"/>
    </linearGradient>
  </defs>
</svg>