<svg width="20" height="20" viewBox="0 0 20 20" fill="none" xmlns="http://www.w3.org/2000/svg">
<path d="M6.45833 1.6665C6.80351 1.6665 7.08333 1.94633 7.08333 2.2915V3.33317H12.9167V2.2915C12.9167 1.94633 13.1965 1.6665 13.5417 1.6665C13.8868 1.6665 14.1667 1.94633 14.1667 2.2915V3.33317H15.2083C16.474 3.33317 17.5 4.35919 17.5 5.62484V7.49984H2.5V5.62484C2.5 4.35919 3.52602 3.33317 4.79167 3.33317H5.83333V2.2915C5.83333 1.94633 6.11316 1.6665 6.45833 1.6665Z" fill="#7994C1"/>
<path d="M2.5 8.75V15.2083C2.5 16.474 3.52602 17.5 4.79167 17.5H15.2083C16.474 17.5 17.5 16.474 17.5 15.2083V8.75H2.5Z" fill="#7994C1"/>
</svg>
