<svg width="17" height="18" viewBox="0 0 17 18" fill="none" xmlns="http://www.w3.org/2000/svg">
<path d="M8.49935 0.671875C7.405 0.671875 6.32137 0.887423 5.31032 1.30621C4.29927 1.725 3.38061 2.33883 2.60679 3.11265C1.04399 4.67546 0.166016 6.79507 0.166016 9.00521C0.166016 11.2153 1.04399 13.335 2.60679 14.8978C3.38061 15.6716 4.29927 16.2854 5.31032 16.7042C6.32137 17.123 7.405 17.3385 8.49935 17.3385C10.7095 17.3385 12.8291 16.4606 14.3919 14.8978C15.9547 13.335 16.8327 11.2153 16.8327 9.00521C16.8327 7.91086 16.6171 6.82723 16.1983 5.81618C15.7796 4.80513 15.1657 3.88647 14.3919 3.11265C13.6181 2.33883 12.6994 1.725 11.6884 1.30621C10.6773 0.887423 9.5937 0.671875 8.49935 0.671875ZM11.9993 12.5052L7.66602 9.83854V4.83854H8.91602V9.17188L12.666 11.4219L11.9993 12.5052Z" fill="#0F3677"/>
</svg>
