<svg width="28" height="28" viewBox="0 0 28 28" fill="none" xmlns="http://www.w3.org/2000/svg">
<g filter="url(#filter0_d_796_4017)">
<rect x="1.23636" y="1.23636" width="25.5273" height="25.5273" rx="5.43636" stroke="url(#paint0_linear_796_4017)" stroke-width="0.472727" shape-rendering="crispEdges"/>
</g>
<rect x="2.89066" y="3.0098" width="22.2182" height="22.2182" rx="4.30182" fill="#FCFAFE" stroke="#DCC9EA" stroke-width="0.472727"/>
<g clip-path="url(#clip0_796_4017)">
<path d="M9.39014 16.3644C10.0431 16.9373 10.8073 17.5597 11.5236 18.126V17.4831C11.5236 16.6403 11.9469 15.8947 12.5919 15.4472C12.3497 14.8191 11.7384 14.3867 11.0462 14.3867C10.133 14.3867 9.39014 15.1296 9.39014 16.0427V16.3644Z" fill="#8C32F0"/>
<path d="M21 12.2477C21 9.89095 19.0895 7.98047 16.7328 7.98047C15.693 7.98047 14.7403 8.35281 14 8.97094C13.2597 8.35284 12.307 7.98047 11.2672 7.98047C8.91045 7.9805 7 9.89098 7 12.2477C7 13.2536 7.373 14.159 7.93034 14.9077C8.0818 15.1111 8.31471 15.3614 8.60243 15.6408C8.7208 14.9162 9.15463 14.2963 9.75797 13.9272C9.29619 13.5518 9.00047 12.9797 9.00047 12.3396C9.00047 11.2115 9.91818 10.2938 11.0462 10.2938C12.0464 10.2938 12.8807 11.0155 13.0571 11.9654C13.3395 11.818 13.66 11.7342 14 11.7342C14.34 11.7342 14.6605 11.818 14.9429 11.9654C15.1193 11.0155 15.9536 10.2938 16.9538 10.2938C18.0818 10.2938 18.9995 11.2115 18.9995 12.3396C18.9995 12.9797 18.7038 13.5518 18.242 13.9272C18.8454 14.2962 19.2792 14.9162 19.3976 15.6408C19.6853 15.3614 19.9182 15.1111 20.0697 14.9077C20.627 14.159 21 13.2536 21 12.2477Z" fill="#8C32F0"/>
<path d="M12.2717 12.3387C12.2717 11.663 11.722 11.1133 11.0462 11.1133C10.3705 11.1133 9.8208 11.663 9.8208 12.3387C9.8208 13.0144 10.3705 13.5641 11.0462 13.5641C11.722 13.5641 12.2717 13.0144 12.2717 12.3387Z" fill="#8C32F0"/>
<path d="M18.6099 16.3644V16.0427C18.6099 15.1296 17.8671 14.3867 16.9539 14.3867C16.2617 14.3867 15.6503 14.8191 15.4082 15.4472C16.0532 15.8947 16.4765 16.6404 16.4765 17.4831V18.1261C17.1928 17.5597 17.9569 16.9373 18.6099 16.3644Z" fill="#8C32F0"/>
<path d="M16.954 11.1133C16.2783 11.1133 15.7285 11.663 15.7285 12.3387C15.7285 13.0144 16.2782 13.5641 16.954 13.5641C17.6297 13.5641 18.1794 13.0144 18.1794 12.3387C18.1794 11.663 17.6296 11.1133 16.954 11.1133Z" fill="#8C32F0"/>
<path d="M15.6558 18.7643V17.4803C15.6558 16.5671 14.9129 15.8242 13.9998 15.8242C13.0867 15.8242 12.3438 16.5671 12.3438 17.4803V18.7642C13.2877 19.494 13.9998 20.0186 13.9998 20.0186C13.9998 20.0186 14.7119 19.494 15.6558 18.7643Z" fill="#8C32F0"/>
<path d="M14.1944 14.9885C14.8624 14.8802 15.3161 14.2509 15.2079 13.583C15.0996 12.915 14.4703 12.4613 13.8023 12.5696C13.1343 12.6778 12.6806 13.3071 12.7888 13.9751C12.8971 14.6431 13.5264 15.0968 14.1944 14.9885Z" fill="#8C32F0"/>
</g>
<defs>
<filter id="filter0_d_796_4017" x="0.0545455" y="0.0545455" width="27.8909" height="27.8909" filterUnits="userSpaceOnUse" color-interpolation-filters="sRGB">
<feFlood flood-opacity="0" result="BackgroundImageFix"/>
<feColorMatrix in="SourceAlpha" type="matrix" values="0 0 0 0 0 0 0 0 0 0 0 0 0 0 0 0 0 0 127 0" result="hardAlpha"/>
<feMorphology radius="0.945455" operator="dilate" in="SourceAlpha" result="effect1_dropShadow_796_4017"/>
<feOffset/>
<feComposite in2="hardAlpha" operator="out"/>
<feColorMatrix type="matrix" values="0 0 0 0 0.584314 0 0 0 0 0.203922 0 0 0 0 1 0 0 0 0.06 0"/>
<feBlend mode="normal" in2="BackgroundImageFix" result="effect1_dropShadow_796_4017"/>
<feBlend mode="normal" in="SourceGraphic" in2="effect1_dropShadow_796_4017" result="shape"/>
</filter>
<linearGradient id="paint0_linear_796_4017" x1="2.89091" y1="3.12727" x2="14" y2="27" gradientUnits="userSpaceOnUse">
<stop stop-color="#9334FB"/>
<stop offset="0.430729" stop-color="#5E9DFB"/>
<stop offset="1" stop-color="#A334FB"/>
</linearGradient>
<clipPath id="clip0_796_4017">
<rect width="14" height="14" fill="white" transform="translate(7 7)"/>
</clipPath>
</defs>
</svg>
