<svg xmlns="http://www.w3.org/2000/svg" width="28" height="28" viewBox="0 0 28 28" fill="none">
  <path d="M5.83817 9.04209C6.03976 4.31839 9.6982 0.490481 14.3491 0.0232618V2.86019C14.3491 3.31542 14.7181 3.68444 15.1733 3.68444C15.6285 3.68444 15.9976 4.05347 15.9976 4.5087C15.9976 4.96393 15.6285 5.33296 15.1733 5.33296C14.7181 5.33296 14.3491 5.70198 14.3491 6.15722V9.04209H12.1477C11.8082 8.08171 10.8923 7.39357 9.81567 7.39357C8.73902 7.39357 7.82309 8.08165 7.48362 9.04209H5.83817ZM15.9975 0C20.7761 0.343135 24.5725 4.22578 24.7783 9.04209H22.1794C21.7241 9.04209 21.3551 9.41111 21.3551 9.86634C21.3551 10.3216 20.9861 10.6906 20.5308 10.6906C20.0756 10.6906 19.7066 10.3216 19.7066 9.86634C19.7066 9.41111 19.3376 9.04209 18.8823 9.04209H15.9975V6.84075C16.9578 6.50128 17.646 5.58534 17.646 4.5087C17.646 3.43206 16.9579 2.51612 15.9975 2.17665L15.9975 0ZM24.7241 10.6905C24.5632 12.1976 24.0898 13.5161 23.2576 15.1804C23.1881 15.3194 22.8257 16.0328 22.7294 16.2272C22.5435 16.6026 22.4066 16.8999 22.293 17.181C22.0295 17.8337 21.9022 18.3841 21.9022 18.933C21.9022 20.0727 22.1861 21.2439 22.6619 22.3738C22.8298 22.7726 23.0097 23.1368 23.1886 23.4575C23.2935 23.6454 23.3724 23.7735 23.4123 23.8334C23.7109 24.2814 23.5069 24.8907 22.9987 25.0686L14.7563 27.9535C14.3221 28.1054 13.8475 27.8726 13.702 27.4361L12.2414 23.0542H9.12354C7.30409 23.0542 5.82941 21.5798 5.82941 19.7601V16.8724H4.59546C3.53738 16.8724 2.92133 15.9151 3.36983 14.9539L5.3594 10.6905H8.16715C8.62238 10.6905 8.99141 10.3215 8.99141 9.86629C8.99141 9.41106 9.36043 9.04203 9.81567 9.04203C10.2709 9.04203 10.6399 9.41106 10.6399 9.86629C10.6399 10.3215 11.0089 10.6905 11.4642 10.6905H14.3491V12.8919C13.3887 13.2314 12.7005 14.1473 12.7005 15.2239C12.7005 16.3006 13.3886 17.2165 14.3491 17.556V19.3452C14.3491 19.8004 14.7181 20.1694 15.1733 20.1694C15.6285 20.1694 15.9976 19.8004 15.9976 19.3452V16.8724C15.9976 16.4172 15.6285 16.0481 15.1733 16.0481C14.7181 16.0481 14.3491 15.6791 14.3491 15.2239C14.3491 14.7686 14.7181 14.3996 15.1733 14.3996C15.6285 14.3996 15.9976 14.0306 15.9976 13.5754V10.6905H18.1989C18.5384 11.6509 19.4543 12.339 20.531 12.339C21.6076 12.339 22.5235 11.6509 22.863 10.6905H24.7241V10.6905Z" fill="black"/>
  <path d="M5.83817 9.04209C6.03976 4.31839 9.6982 0.490481 14.3491 0.0232618V2.86019C14.3491 3.31542 14.7181 3.68444 15.1733 3.68444C15.6285 3.68444 15.9976 4.05347 15.9976 4.5087C15.9976 4.96393 15.6285 5.33296 15.1733 5.33296C14.7181 5.33296 14.3491 5.70198 14.3491 6.15722V9.04209H12.1477C11.8082 8.08171 10.8923 7.39357 9.81567 7.39357C8.73902 7.39357 7.82309 8.08165 7.48362 9.04209H5.83817ZM15.9975 0C20.7761 0.343135 24.5725 4.22578 24.7783 9.04209H22.1794C21.7241 9.04209 21.3551 9.41111 21.3551 9.86634C21.3551 10.3216 20.9861 10.6906 20.5308 10.6906C20.0756 10.6906 19.7066 10.3216 19.7066 9.86634C19.7066 9.41111 19.3376 9.04209 18.8823 9.04209H15.9975V6.84075C16.9578 6.50128 17.646 5.58534 17.646 4.5087C17.646 3.43206 16.9579 2.51612 15.9975 2.17665L15.9975 0ZM24.7241 10.6905C24.5632 12.1976 24.0898 13.5161 23.2576 15.1804C23.1881 15.3194 22.8257 16.0328 22.7294 16.2272C22.5435 16.6026 22.4066 16.8999 22.293 17.181C22.0295 17.8337 21.9022 18.3841 21.9022 18.933C21.9022 20.0727 22.1861 21.2439 22.6619 22.3738C22.8298 22.7726 23.0097 23.1368 23.1886 23.4575C23.2935 23.6454 23.3724 23.7735 23.4123 23.8334C23.7109 24.2814 23.5069 24.8907 22.9987 25.0686L14.7563 27.9535C14.3221 28.1054 13.8475 27.8726 13.702 27.4361L12.2414 23.0542H9.12354C7.30409 23.0542 5.82941 21.5798 5.82941 19.7601V16.8724H4.59546C3.53738 16.8724 2.92133 15.9151 3.36983 14.9539L5.3594 10.6905H8.16715C8.62238 10.6905 8.99141 10.3215 8.99141 9.86629C8.99141 9.41106 9.36043 9.04203 9.81567 9.04203C10.2709 9.04203 10.6399 9.41106 10.6399 9.86629C10.6399 10.3215 11.0089 10.6905 11.4642 10.6905H14.3491V12.8919C13.3887 13.2314 12.7005 14.1473 12.7005 15.2239C12.7005 16.3006 13.3886 17.2165 14.3491 17.556V19.3452C14.3491 19.8004 14.7181 20.1694 15.1733 20.1694C15.6285 20.1694 15.9976 19.8004 15.9976 19.3452V16.8724C15.9976 16.4172 15.6285 16.0481 15.1733 16.0481C14.7181 16.0481 14.3491 15.6791 14.3491 15.2239C14.3491 14.7686 14.7181 14.3996 15.1733 14.3996C15.6285 14.3996 15.9976 14.0306 15.9976 13.5754V10.6905H18.1989C18.5384 11.6509 19.4543 12.339 20.531 12.339C21.6076 12.339 22.5235 11.6509 22.863 10.6905H24.7241V10.6905Z" fill="url(#paint0_linear_2445_7911)"/>
  <defs>
    <linearGradient id="paint0_linear_2445_7911" x1="3.20914" y1="14.8258" x2="15.3572" y2="14.6313" gradientUnits="userSpaceOnUse">
      <stop stop-color="#5877A7"/>
      <stop offset="0.97855" stop-color="#5A92D3"/>
    </linearGradient>
  </defs>
</svg>