<svg
  width="64"
  height="65"
  viewBox="0 0 64 65"
  fill="none"
  xmlns="http://www.w3.org/2000/svg"
>
  <rect y="0.5" width="64" height="64" rx="10.8679" fill="white" />
  <path
    d="M46.25 35.85H43.4V26.2142L32.1026 36.3317L20.6 26.1828V42.975H34.85V45.825H19.175C18.7971 45.825 18.4346 45.6749 18.1674 45.4076C17.9001 45.1404 17.75 44.7779 17.75 44.4V21.6C17.75 21.2221 17.9001 20.8596 18.1674 20.5924C18.4346 20.3251 18.7971 20.175 19.175 20.175H44.825C45.2029 20.175 45.5654 20.3251 45.8326 20.5924C46.0999 20.8596 46.25 21.2221 46.25 21.6V35.85ZM21.3282 23.025L32.0869 32.5184L42.6904 23.025H21.3282ZM41.975 47.25L36.9362 42.2112L38.9526 40.1963L41.975 43.2201L47.0138 38.1813L49.0288 40.1963L41.975 47.25Z"
    fill="#525866"
  />
</svg>