<svg width="64" height="60" viewBox="0 0 64 60" fill="none" xmlns="http://www.w3.org/2000/svg">
  <g filter="url(#filter0_d_1393_3902)">
    <path
      d="M54.9418 22.5874V45.1191C54.9418 45.2148 54.9418 45.2606 54.9418 45.3521C54.8952 46.6548 54.2914 47.7701 53.362 48.5608C52.5721 49.2558 51.5038 49.722 50.3423 49.722H13.9663C13.1764 49.722 12.4331 49.5346 11.7826 49.1643C11.5038 49.0228 11.2254 48.8396 10.9927 48.6065C10.4817 48.1862 10.0172 47.5828 9.78499 46.9335C9.59897 46.4674 9.45996 45.9556 9.45996 45.4479V22.5874C9.45996 22.5874 11.3644 20.9643 14.1057 18.7336C16.9394 16.3656 20.6558 13.2985 23.9082 10.6017C25.7664 9.02435 25.5804 9.20746 28.4608 6.79366C30.6444 4.93336 33.8498 4.93336 36.0334 6.79366C36.5911 7.25977 37.195 7.81747 37.7522 8.27942C38.9604 9.25743 40.2609 10.3728 41.6547 11.5339C44.5816 13.9477 47.7874 16.6444 50.2961 18.7336C52.851 20.8228 54.7092 22.4043 54.9418 22.5874Z"
      fill="#D8DFEA" />
  </g>
  <path
    d="M50.2949 18.6878V26.7699L42.351 31.5559L39.9818 32.9958L34.9644 36.0172L32.5947 37.4572L31.573 38.0607L30.597 37.4572L28.3672 36.0172L23.582 32.9958L21.3522 31.5559L14.0117 26.9571V18.7335C16.8459 16.3655 20.5623 13.2984 23.8143 10.6016L41.6077 11.4838C44.5809 13.9476 47.7863 16.5945 50.2949 18.6878Z"
    fill="#B0C2DD" />
  <path
    d="M48.7155 12.272V26.4885L41.4683 30.8083L39.3312 32.111L34.7317 34.8036L32.5947 36.1061L31.6658 36.618L30.783 36.1061L28.7388 34.8036L24.3719 32.111L22.3277 30.8083L15.6377 26.6299V12.272C15.6377 10.7862 16.8458 9.57934 18.379 9.57934H45.9746C47.4612 9.53356 48.7155 10.7862 48.7155 12.272Z"
    fill="white" />
  <path opacity="0.5"
    d="M9.64355 22.5L31.4785 23.9399L54.6144 22.5L53.7317 26.6367C53.7317 26.6367 31.9895 37.9692 32.129 37.9692C32.2684 37.9692 9.69017 24.5435 9.69017 24.5435L9.64355 22.5Z"
    fill="url(#paint0_linear_1393_3902)" />
  <path
    d="M54.9418 22.5898V45.3546C54.8952 46.6572 54.2914 47.7725 53.362 48.5633C52.5721 49.2583 51.5038 49.7244 50.3423 49.7244H13.9663C13.1764 49.7244 12.4331 49.5371 11.7826 49.1667C11.5038 49.0252 11.2254 48.842 10.9927 48.609C10.4817 48.1887 10.0172 47.5852 9.78499 46.936C9.59897 46.4699 9.45996 45.958 9.45996 45.4503V45.4003V22.5898L29.8083 35.3206L31.5737 36.4359L32.1776 36.0656L32.7348 35.741L54.9418 22.5898Z"
    fill="#738DFF" />
  <path
    d="M53.4087 48.5633C52.6188 49.2583 51.5504 49.7244 50.3889 49.7244H13.9663C13.1764 49.7244 12.4331 49.5371 11.7826 49.1667C11.5038 49.0252 11.2254 48.842 10.9927 48.609C10.4817 48.1887 10.0172 47.5852 9.78499 46.936C9.59897 46.4699 9.45996 45.958 9.45996 45.4503V45.4003V22.5898L11.8292 24.0298L32.1776 36.0656L32.7348 36.3902L32.7814 36.4359L51.0394 47.2149L53.4087 48.5633Z"
    fill="url(#paint1_linear_1393_3902)" />
  <path
    d="M32.733 35.6881V37.2696L11.7808 49.1638C11.502 49.0223 11.2236 48.8392 10.9909 48.6061C10.4799 48.1858 10.0154 47.5823 9.7832 46.9331L30.1782 34.8516L31.9436 35.967L32.1758 36.0627L32.733 35.6881Z"
    fill="url(#paint2_linear_1393_3902)" />
  <path d="M9.45996 22.5898L32.1776 36.0656" stroke="white" stroke-width="0.416173"
    stroke-miterlimit="10" />
  <path
    d="M54.9438 22.5898V45.3546C54.8976 46.6572 54.2938 47.7725 53.3644 48.5633C52.5745 49.2583 51.5062 49.7244 50.3447 49.7244H13.9687C13.1788 49.7244 12.4355 49.5371 11.785 49.1667C11.5062 49.0252 11.2273 48.842 10.9951 48.609L13.3182 47.2149L31.5757 36.4359L32.18 36.0656L32.7372 35.741L52.5283 23.9841L54.9438 22.5898Z"
    fill="url(#paint3_linear_1393_3902)" />
  <path d="M54.9438 22.5898L32.7372 35.691L32.18 36.0656L31.5757 36.4359L10.9951 48.5633"
    stroke="white" stroke-width="0.416173" stroke-miterlimit="10" />
  <path
    d="M49.4592 38.5235H37.3802C37.1018 38.5235 36.8691 38.2946 36.8691 38.0158C36.8691 37.737 37.1018 37.5039 37.3802 37.5039H49.4592C49.738 37.5039 49.9703 37.737 49.9703 38.0158C50.0169 38.2946 49.7847 38.5235 49.4592 38.5235Z"
    fill="#133978" />
  <path
    d="M49.4592 42.0082H37.3802C37.1018 42.0082 36.8691 41.7752 36.8691 41.4964C36.8691 41.2175 37.1018 40.9844 37.3802 40.9844H49.4592C49.738 40.9844 49.9703 41.2175 49.9703 41.4964C50.0169 41.7752 49.7847 42.0082 49.4592 42.0082Z"
    fill="#133978" />
  <path
    d="M51.9688 49.2567L53.4553 48.5117C53.4091 48.5617 53.4091 48.5617 53.3625 48.6074C53.3625 48.6074 53.3625 48.6074 53.3159 48.6074L51.9688 49.2567Z"
    fill="#526DFF" />
  <defs>
    <filter id="filter0_d_1393_3902" x="0.304154" y="0.820534" width="63.7931" height="62.6358"
      filterUnits="userSpaceOnUse" color-interpolation-filters="sRGB">
      <feFlood flood-opacity="0" result="BackgroundImageFix" />
      <feColorMatrix in="SourceAlpha" type="matrix"
        values="0 0 0 0 0 0 0 0 0 0 0 0 0 0 0 0 0 0 127 0" result="hardAlpha" />
      <feOffset dy="4.5779" />
      <feGaussianBlur stdDeviation="4.5779" />
      <feColorMatrix type="matrix"
        values="0 0 0 0 0.397708 0 0 0 0 0.47749 0 0 0 0 0.575 0 0 0 0.27 0" />
      <feBlend mode="normal" in2="BackgroundImageFix" result="effect1_dropShadow_1393_3902" />
      <feBlend mode="normal" in="SourceGraphic" in2="effect1_dropShadow_1393_3902" result="shape" />
    </filter>
    <linearGradient id="paint0_linear_1393_3902" x1="32.109" y1="42.8759" x2="32.109" y2="23.5446"
      gradientUnits="userSpaceOnUse">
      <stop stop-color="#8A90B5" />
      <stop offset="1" stop-color="#A7AED2" stop-opacity="0" />
    </linearGradient>
    <linearGradient id="paint1_linear_1393_3902" x1="31.4197" y1="21.9656" x2="31.4197" y2="50.0157"
      gradientUnits="userSpaceOnUse">
      <stop stop-color="#FDFEFF" />
      <stop offset="0.9964" stop-color="#ECF0F5" />
    </linearGradient>
    <linearGradient id="paint2_linear_1393_3902" x1="22.5689" y1="43.3166" x2="20.7872" y2="40.7113"
      gradientUnits="userSpaceOnUse">
      <stop stop-color="#D5D8E4" />
      <stop offset="1" stop-color="#E1E4F0" stop-opacity="0" />
    </linearGradient>
    <linearGradient id="paint3_linear_1393_3902" x1="32.9553" y1="21.9656" x2="32.9553" y2="50.0157"
      gradientUnits="userSpaceOnUse">
      <stop stop-color="#FDFEFF" />
      <stop offset="0.9964" stop-color="#ECF0F5" />
    </linearGradient>
  </defs>
</svg>