<svg width="120" height="137" viewBox="0 0 120 137" fill="none" xmlns="http://www.w3.org/2000/svg">
<path d="M59.9995 137C93.0735 137 119.886 110.09 119.886 76.8905C119.886 43.6905 93.0735 16.7805 59.9995 16.7805C26.9255 16.7805 0.114502 43.6905 0.114502 76.8905C0.114502 110.09 26.9255 137 59.9995 137Z" fill="#E3EBF9"/>
<path d="M21.2335 121.511C20.4275 121.511 19.7105 120.88 19.6205 120.07C19.5315 119.17 20.1585 118.351 21.0545 118.261C21.9505 118.171 22.8465 118.08 23.7425 117.99C24.6385 117.9 25.4445 118.53 25.5345 119.44C25.6235 120.34 24.9965 121.15 24.1005 121.24C23.2045 121.33 22.2185 121.421 21.3225 121.511C21.3225 121.511 21.3225 121.511 21.2335 121.511Z" fill="#8AA9DD"/>
<path d="M33.8655 119.891C33.0595 119.891 32.3425 119.351 32.2535 118.531C32.0735 117.631 32.7015 116.821 33.5975 116.641C35.3895 116.371 37.0915 116.011 38.8835 115.651C39.7795 115.471 40.5855 116.011 40.7645 116.911C40.9445 117.811 40.4065 118.621 39.5105 118.801C37.7185 119.171 35.9265 119.531 34.0455 119.801C33.9555 119.891 33.9555 119.891 33.8655 119.891ZM74.6325 117.091H74.5425C72.6615 116.911 70.7795 116.641 68.8985 116.281C68.0025 116.101 67.4645 115.191 67.6435 114.291C67.8235 113.391 68.7195 112.851 69.6155 113.031C71.3175 113.391 73.0195 113.661 74.7225 113.841C75.6185 113.931 76.3345 114.651 76.2455 115.561C76.2455 116.461 75.5285 117.091 74.6325 117.091ZM48.8285 116.461C48.1115 116.461 47.4845 116.011 47.3055 115.281C47.0365 114.381 47.4845 113.481 48.3805 113.211C50.0825 112.671 51.7855 112.041 53.3985 111.311C54.2045 110.951 55.1895 111.311 55.5485 112.221C55.9065 113.031 55.5485 114.021 54.6525 114.381C53.0395 115.101 51.2475 115.741 49.3665 116.371C49.0975 116.461 48.9185 116.461 48.8285 116.461ZM84.4885 116.461C83.7715 116.461 83.0545 115.921 82.8755 115.191C82.6965 114.291 83.2335 113.391 84.1295 113.211C85.8325 112.851 87.4445 112.311 89.0575 111.681C89.8645 111.311 90.8495 111.771 91.2085 112.581C91.5665 113.391 91.1185 114.381 90.3125 114.741C88.5205 115.471 86.7285 116.011 84.8465 116.461C84.7575 116.461 84.6675 116.461 84.4885 116.461ZM59.9385 112.941C59.6695 112.941 59.4015 112.851 59.2215 112.761C57.5195 111.951 55.9065 110.951 54.3835 109.871C53.6665 109.331 53.4875 108.341 53.9355 107.611C54.4735 106.891 55.4585 106.711 56.1755 107.161C57.6095 108.161 59.1325 109.061 60.6555 109.871C61.4615 110.321 61.8205 111.221 61.3725 112.041C61.1925 112.671 60.5655 112.941 59.9385 112.941ZM98.2865 109.871C97.8385 109.871 97.3005 109.691 97.0315 109.241C96.4945 108.521 96.5835 107.521 97.3005 106.891C98.6445 105.811 99.9885 104.641 101.154 103.371C101.781 102.741 102.767 102.651 103.483 103.281C104.11 103.911 104.2 104.911 103.573 105.631C102.319 106.981 100.885 108.341 99.3616 109.511C99.0026 109.781 98.6445 109.871 98.2865 109.871ZM62.6265 109.781C62.0885 109.781 61.6405 109.511 61.2825 109.061C60.7455 108.341 60.9245 107.251 61.6405 106.801C63.0745 105.721 64.4185 104.641 65.5835 103.461C66.2105 102.831 67.2855 102.831 67.9125 103.461C68.5395 104.091 68.5395 105.181 67.9125 105.811C66.5685 107.071 65.1355 108.341 63.5225 109.511C63.2535 109.691 62.8955 109.781 62.6265 109.781ZM47.8435 103.641C47.3955 103.641 46.9475 103.461 46.5885 103.101C45.3345 101.661 44.1695 100.121 43.0945 98.5906C42.5565 97.8706 42.8255 96.7906 43.5425 96.3306C44.2595 95.8806 45.3345 96.0607 45.7825 96.7907C46.7675 98.2307 47.8435 99.5806 49.0075 100.941C49.6345 101.571 49.5455 102.651 48.9185 103.281C48.6495 103.461 48.2015 103.641 47.8435 103.641ZM72.5715 98.2306C72.3035 98.2306 72.1235 98.1407 71.8555 98.0507C71.0485 97.6907 70.6905 96.7006 71.1385 95.8806C71.8555 94.3506 72.4825 92.7206 73.0195 91.0106C73.2885 90.1106 74.1845 89.6607 75.0805 89.9307C75.9765 90.2007 76.4245 91.1006 76.1555 92.0006C75.6185 93.9006 74.9015 95.7007 74.0945 97.4207C73.7365 97.9607 73.1995 98.2306 72.5715 98.2306ZM108.053 98.0507C107.784 98.0507 107.515 97.9606 107.336 97.8706C106.53 97.4206 106.261 96.4206 106.619 95.6106C107.426 94.0806 108.142 92.4506 108.68 90.8306C108.949 90.0206 109.934 89.5706 110.741 89.8406C111.547 90.1106 111.995 91.1007 111.726 91.9107C111.099 93.7207 110.293 95.5206 109.486 97.1506C109.218 97.7806 108.68 98.0507 108.053 98.0507ZM40.3165 90.2907C39.6005 90.2907 38.9725 89.8406 38.7935 89.1106C38.2565 87.2206 37.8975 85.3207 37.7185 83.4307C37.6285 82.5307 38.2565 81.7206 39.1525 81.6206C40.0485 81.5306 40.8545 82.1706 40.9445 83.0706C41.1235 84.7806 41.4815 86.5006 41.9295 88.1206C42.1985 89.0206 41.6605 89.9306 40.8545 90.2006C40.5855 90.2906 40.4965 90.2907 40.3165 90.2907ZM112.443 83.3406C112.353 83.3406 112.353 83.3406 112.264 83.3406C111.368 83.2506 110.741 82.4406 110.83 81.5306C111.009 79.8206 111.099 78.0207 111.099 76.3007C111.099 75.4007 111.816 74.6807 112.712 74.6807C113.608 74.6807 114.325 75.4007 114.325 76.3007C114.325 78.2007 114.235 80.0906 114.056 81.9906C113.966 82.7106 113.249 83.3406 112.443 83.3406ZM75.9765 83.1607C75.0805 83.1607 74.3635 82.5306 74.3635 81.6206V81.3506C74.3635 79.6406 74.1845 78.0206 73.9155 76.4806C73.7365 75.5806 74.2745 74.7706 75.1705 74.5906C76.0665 74.4106 76.8725 74.9506 77.0515 75.8506C77.4105 77.5606 77.5895 79.4606 77.5895 81.4406C77.5895 82.3506 76.8725 83.1607 75.9765 83.1607ZM40.5855 75.1306C40.4065 75.1306 40.1375 75.0406 39.9585 74.9506C39.1525 74.5906 38.7935 73.5906 39.1525 72.7806C39.9585 70.9806 41.0335 69.2606 42.3775 67.8206C43.0045 67.1906 43.9905 67.1006 44.7075 67.7306C45.3345 68.3606 45.4235 69.3506 44.7965 70.0706C43.6315 71.3406 42.7355 72.6906 42.1085 74.2206C41.8405 74.7706 41.2125 75.1306 40.5855 75.1306ZM71.1385 68.9906C70.6905 68.9906 70.2426 68.8106 69.9736 68.4506C68.8986 67.2806 67.5545 66.2807 66.0315 65.5607C65.2245 65.2007 64.8665 64.2106 65.3145 63.4006C65.6725 62.5806 66.6585 62.2207 67.4645 62.6707C69.2565 63.5807 70.8695 64.7506 72.3035 66.2806C72.9305 66.9206 72.9305 68.0006 72.2135 68.6306C71.9445 68.9006 71.4965 68.9906 71.1385 68.9906ZM111.816 67.9107C111.009 67.9107 110.382 67.3707 110.202 66.5507C109.844 64.8407 109.486 63.0307 108.949 61.4107C108.68 60.5107 109.218 59.6106 110.024 59.3406C110.92 59.0606 111.816 59.6107 112.085 60.4207C112.622 62.2207 113.07 64.0307 113.429 65.9207C113.608 66.8307 112.981 67.6406 112.085 67.8206C111.995 67.9106 111.905 67.9107 111.816 67.9107ZM51.7855 65.2006C51.0685 65.2006 50.4415 64.7506 50.2625 64.1206C49.9935 63.3106 50.4415 62.3107 51.2475 62.0407C53.1295 61.4107 55.0105 60.9606 56.9816 60.7806C57.8776 60.6906 58.6845 61.4107 58.7735 62.3107C58.8635 63.2207 58.1465 64.0306 57.2505 64.1206C55.5485 64.3006 53.9355 64.5706 52.3225 65.2006C52.1435 65.1106 51.9645 65.2006 51.7855 65.2006ZM106.978 53.2907C106.35 53.2907 105.812 52.9306 105.544 52.3906C104.738 50.7606 103.842 49.2306 102.856 47.7806C102.408 46.9706 102.587 45.9806 103.394 45.5306C104.2 45.0806 105.186 45.2606 105.634 46.0706C106.619 47.6006 107.515 49.3206 108.411 51.0306C108.77 51.8506 108.501 52.8406 107.694 53.2006C107.426 53.2906 107.157 53.2907 106.978 53.2907Z" fill="#8AA9DD"/>
<path d="M98.0174 40.4706C97.5694 40.4706 97.2105 40.2906 96.8525 40.0206C96.2255 39.3906 95.5984 38.7606 94.9704 38.2206C94.2544 37.5906 94.2545 36.5906 94.7915 35.8706C95.4185 35.1506 96.4044 35.1506 97.1214 35.6906C97.8384 36.3206 98.5544 36.9607 99.1814 37.6807C99.8094 38.3107 99.8094 39.3906 99.1814 40.0206C98.8234 40.2906 98.3754 40.4706 98.0174 40.4706Z" fill="#8AA9DD"/>
<path d="M79.5605 31.4504C74.1845 35.5104 72.3025 38.4904 61.2825 27.2104C59.1315 25.0404 59.6695 21.7005 66.8375 20.8005C73.1095 19.9905 77.7685 20.8005 82.5165 22.6105C82.5165 22.6105 82.5165 22.6105 82.6065 22.5205C80.1875 16.2005 79.7395 9.70047 81.6205 3.11047C82.3375 0.770474 84.7565 -1.03946 86.5485 0.680543C98.2855 11.7805 95.5085 14.4805 91.1185 19.7205C91.6555 19.3605 92.1035 19.0904 92.5515 18.8204C95.2395 17.1904 100.795 16.6505 101.512 24.4105C101.601 25.6705 101.601 27.0305 101.064 28.2905C99.9885 30.7305 97.3005 30.8205 94.9705 30.7305C92.6415 30.6405 90.8495 30.0105 88.8785 29.1005C89.0575 29.4705 89.0575 29.6504 89.1465 29.8304C90.4015 32.8004 91.4765 38.4005 89.0575 40.6605C87.7135 41.8305 85.8315 41.8305 84.1295 41.7405C82.6955 41.6505 81.2625 41.3805 80.0085 40.6605C78.1265 39.5705 77.4095 37.6805 77.6785 35.6005C78.0365 33.7105 78.9325 32.5304 79.5605 31.4504Z" fill="#0F3677"/>
</svg>
