<svg width="40" height="40" viewBox="0 0 40 40" fill="none" xmlns="http://www.w3.org/2000/svg">
<g clip-path="url(#clip0_3153_31412)">
<rect width="40" height="40" rx="4" fill="white"/>
<g filter="url(#filter0_dddd_3153_31412)">
<path d="M17.584 29.706V23.0561H15.5202V20H17.584V18.6833C17.584 15.2794 19.124 13.7033 22.464 13.7033C23.0963 13.7033 24.1879 13.8272 24.6363 13.9511V16.7194C24.4001 16.6956 23.9879 16.6833 23.4801 16.6833C21.8401 16.6833 21.2079 17.3033 21.2079 18.9194V20H24.4763L23.9163 23.0556H21.2124V29.9277C26.1637 29.3279 30 25.112 30 20C30 14.4772 25.5228 10 20 10C14.4772 10 10 14.4772 10 20C10 24.6899 13.2281 28.6253 17.584 29.706Z" fill="#0068FF"/>
</g>
</g>
<rect x="0.5" y="0.5" width="39" height="39" rx="3.5" stroke="#DBE3E8"/>
<defs>
<filter id="filter0_dddd_3153_31412" x="4" y="9" width="32" height="41.9277" filterUnits="userSpaceOnUse" color-interpolation-filters="sRGB">
<feFlood flood-opacity="0" result="BackgroundImageFix"/>
<feColorMatrix in="SourceAlpha" type="matrix" values="0 0 0 0 0 0 0 0 0 0 0 0 0 0 0 0 0 0 127 0" result="hardAlpha"/>
<feOffset dy="1"/>
<feGaussianBlur stdDeviation="1"/>
<feColorMatrix type="matrix" values="0 0 0 0 0 0 0 0 0 0 0 0 0 0 0 0 0 0 0.1 0"/>
<feBlend mode="normal" in2="BackgroundImageFix" result="effect1_dropShadow_3153_31412"/>
<feColorMatrix in="SourceAlpha" type="matrix" values="0 0 0 0 0 0 0 0 0 0 0 0 0 0 0 0 0 0 127 0" result="hardAlpha"/>
<feOffset dy="4"/>
<feGaussianBlur stdDeviation="2"/>
<feColorMatrix type="matrix" values="0 0 0 0 0 0 0 0 0 0 0 0 0 0 0 0 0 0 0.09 0"/>
<feBlend mode="normal" in2="effect1_dropShadow_3153_31412" result="effect2_dropShadow_3153_31412"/>
<feColorMatrix in="SourceAlpha" type="matrix" values="0 0 0 0 0 0 0 0 0 0 0 0 0 0 0 0 0 0 127 0" result="hardAlpha"/>
<feOffset dy="8"/>
<feGaussianBlur stdDeviation="2.5"/>
<feColorMatrix type="matrix" values="0 0 0 0 0 0 0 0 0 0 0 0 0 0 0 0 0 0 0.05 0"/>
<feBlend mode="normal" in2="effect2_dropShadow_3153_31412" result="effect3_dropShadow_3153_31412"/>
<feColorMatrix in="SourceAlpha" type="matrix" values="0 0 0 0 0 0 0 0 0 0 0 0 0 0 0 0 0 0 127 0" result="hardAlpha"/>
<feOffset dy="15"/>
<feGaussianBlur stdDeviation="3"/>
<feColorMatrix type="matrix" values="0 0 0 0 0 0 0 0 0 0 0 0 0 0 0 0 0 0 0.01 0"/>
<feBlend mode="normal" in2="effect3_dropShadow_3153_31412" result="effect4_dropShadow_3153_31412"/>
<feBlend mode="normal" in="SourceGraphic" in2="effect4_dropShadow_3153_31412" result="shape"/>
</filter>
<clipPath id="clip0_3153_31412">
<rect width="40" height="40" rx="4" fill="white"/>
</clipPath>
</defs>
</svg>
