<svg xmlns="http://www.w3.org/2000/svg" width="28" height="28" viewBox="0 0 28 28" fill="none">
  <g clip-path="url(#clip0_2445_7836)">
    <path d="M8.25781 4.92188H10.7188V21.3828H17.2812V4.92188H19.7422L14 0L8.25781 4.92188Z" fill="black"/>
    <path d="M8.25781 4.92188H10.7188V21.3828H17.2812V4.92188H19.7422L14 0L8.25781 4.92188Z" fill="url(#paint0_linear_2445_7836)"/>
    <path d="M23.0234 14.8273H24.6641L20.5625 9.90625L18.9219 11.8747V21.3898H23.0234V14.8273Z" fill="black"/>
    <path d="M23.0234 14.8273H24.6641L20.5625 9.90625L18.9219 11.8747V21.3898H23.0234V14.8273Z" fill="url(#paint1_linear_2445_7836)"/>
    <path d="M9.07812 21.3898V11.8747L7.4375 9.90625L3.33594 14.8273H4.97656V21.3898H9.07812Z" fill="black"/>
    <path d="M9.07812 21.3898V11.8747L7.4375 9.90625L3.33594 14.8273H4.97656V21.3898H9.07812Z" fill="url(#paint2_linear_2445_7836)"/>
    <path d="M19.0186 23.0156L21.4791 27.9922H27.9997L23.8438 23.0156H19.0186Z" fill="black"/>
    <path d="M19.0186 23.0156L21.4791 27.9922H27.9997L23.8438 23.0156H19.0186Z" fill="url(#paint3_linear_2445_7836)"/>
    <path d="M10.8163 23.0156L8.35547 27.9922H19.6454L17.1848 23.0156H10.8163Z" fill="black"/>
    <path d="M10.8163 23.0156L8.35547 27.9922H19.6454L17.1848 23.0156H10.8163Z" fill="url(#paint4_linear_2445_7836)"/>
    <path d="M8.98138 23.0156H4.15587L0 27.9922H6.52066L8.98138 23.0156Z" fill="black"/>
    <path d="M8.98138 23.0156H4.15587L0 27.9922H6.52066L8.98138 23.0156Z" fill="url(#paint5_linear_2445_7836)"/>
  </g>
  <defs>
    <linearGradient id="paint0_linear_2445_7836" x1="8.25113" y1="11.3221" x2="14.7239" y2="11.2498" gradientUnits="userSpaceOnUse">
      <stop stop-color="#5877A7"/>
      <stop offset="0.97855" stop-color="#5A92D3"/>
    </linearGradient>
    <linearGradient id="paint1_linear_2445_7836" x1="18.9185" y1="15.9867" x2="22.155" y2="15.9531" gradientUnits="userSpaceOnUse">
      <stop stop-color="#5877A7"/>
      <stop offset="0.97855" stop-color="#5A92D3"/>
    </linearGradient>
    <linearGradient id="paint2_linear_2445_7836" x1="3.3326" y1="15.9867" x2="6.56905" y2="15.9531" gradientUnits="userSpaceOnUse">
      <stop stop-color="#5877A7"/>
      <stop offset="0.97855" stop-color="#5A92D3"/>
    </linearGradient>
    <linearGradient id="paint3_linear_2445_7836" x1="19.0133" y1="25.6507" x2="24.0687" y2="25.4609" gradientUnits="userSpaceOnUse">
      <stop stop-color="#5877A7"/>
      <stop offset="0.97855" stop-color="#5A92D3"/>
    </linearGradient>
    <linearGradient id="paint4_linear_2445_7836" x1="8.3489" y1="25.6507" x2="14.6987" y2="25.351" gradientUnits="userSpaceOnUse">
      <stop stop-color="#5877A7"/>
      <stop offset="0.97855" stop-color="#5A92D3"/>
    </linearGradient>
    <linearGradient id="paint5_linear_2445_7836" x1="-0.00522314" y1="25.6507" x2="5.05035" y2="25.4609" gradientUnits="userSpaceOnUse">
      <stop stop-color="#5877A7"/>
      <stop offset="0.97855" stop-color="#5A92D3"/>
    </linearGradient>
    <clipPath id="clip0_2445_7836">
      <rect width="28" height="28" fill="white"/>
    </clipPath>
  </defs>
</svg>