<svg width="40" height="40" viewBox="0 0 40 40" fill="none" xmlns="http://www.w3.org/2000/svg">
<g clip-path="url(#clip0_3153_31409)">
<rect width="40" height="40" rx="4" fill="white"/>
<g filter="url(#filter0_dddd_3153_31409)">
<path d="M20 12.2117C22.5365 12.2117 22.837 12.2212 23.8389 12.267C24.4411 12.2743 25.0377 12.385 25.6024 12.5943C26.0151 12.7466 26.3884 12.9895 26.6949 13.3051C27.0105 13.6116 27.2534 13.9849 27.4057 14.3976C27.615 14.9624 27.7257 15.5589 27.733 16.1611C27.7788 17.163 27.7883 17.4635 27.7883 20C27.7883 22.5365 27.7788 22.837 27.733 23.8389C27.7257 24.4411 27.615 25.0377 27.4057 25.6024C27.2476 26.0122 27.0055 26.3844 26.6949 26.6949C26.3844 27.0055 26.0122 27.2476 25.6024 27.4057C25.0377 27.615 24.4411 27.7257 23.8389 27.733C22.837 27.7788 22.5365 27.7883 20 27.7883C17.4635 27.7883 17.163 27.7788 16.1611 27.733C15.5586 27.7258 14.9618 27.6151 14.3967 27.4057C13.9843 27.2533 13.6113 27.0104 13.3051 26.6949C12.9895 26.3884 12.7466 26.0151 12.5943 25.6024C12.385 25.0377 12.2743 24.4411 12.267 23.8389C12.2212 22.837 12.2117 22.5365 12.2117 20C12.2117 17.4635 12.2212 17.163 12.267 16.1611C12.2743 15.5589 12.385 14.9624 12.5943 14.3976C12.7466 13.9849 12.9895 13.6116 13.3051 13.3051C13.6116 12.9895 13.9849 12.7466 14.3976 12.5943C14.9624 12.385 15.5589 12.2743 16.1611 12.267C17.163 12.2212 17.4635 12.2117 20 12.2117ZM20 10.5C17.4203 10.5 17.0965 10.5112 16.0834 10.557C15.2954 10.5727 14.5157 10.7219 13.7775 10.9983C13.1433 11.2371 12.5689 11.6114 12.0943 12.0951C11.611 12.5696 11.237 13.1437 10.9983 13.7775C10.7222 14.5157 10.5733 15.2954 10.5579 16.0834C10.5104 17.0965 10.5 17.4203 10.5 20C10.5 22.5797 10.5112 22.9035 10.557 23.9166C10.5727 24.7046 10.7219 25.4843 10.9983 26.2225C11.2371 26.8567 11.6114 27.4311 12.0951 27.9057C12.5696 28.389 13.1437 28.763 13.7775 29.0017C14.5157 29.2778 15.2954 29.4267 16.0834 29.4421C17.0965 29.4896 17.4203 29.5 20 29.5C22.5797 29.5 22.9035 29.4888 23.9166 29.443C24.7046 29.4273 25.4843 29.2781 26.2225 29.0017C26.8538 28.7576 27.4271 28.3843 27.9057 27.9057C28.3843 27.4271 28.7576 26.8538 29.0017 26.2225C29.2778 25.4843 29.4267 24.7046 29.4421 23.9166C29.4896 22.9035 29.5 22.5797 29.5 20C29.5 17.4203 29.4888 17.0965 29.443 16.0834C29.4273 15.2954 29.2781 14.5157 29.0017 13.7775C28.7629 13.1433 28.3886 12.5689 27.9049 12.0943C27.4304 11.611 26.8563 11.237 26.2225 10.9983C25.4843 10.7222 24.7046 10.5733 23.9166 10.5579C22.9035 10.5104 22.5797 10.5 20 10.5ZM20 15.1213C19.0351 15.1213 18.0918 15.4075 17.2895 15.9435C16.4872 16.4796 15.8619 17.2416 15.4927 18.133C15.1234 19.0245 15.0268 20.0054 15.2151 20.9518C15.4033 21.8982 15.868 22.7675 16.5503 23.4497C17.2326 24.132 18.1018 24.5967 19.0482 24.7849C19.9946 24.9732 20.9755 24.8766 21.867 24.5073C22.7585 24.1381 23.5204 23.5127 24.0565 22.7105C24.5926 21.9082 24.8787 20.9649 24.8787 20C24.8787 18.7061 24.3647 17.4652 23.4497 16.5503C22.5348 15.6353 21.2939 15.1213 20 15.1213ZM20 23.167C19.3736 23.167 18.7613 22.9812 18.2405 22.6332C17.7197 22.2852 17.3138 21.7906 17.0741 21.2119C16.8344 20.6333 16.7717 19.9965 16.8939 19.3822C17.0161 18.7678 17.3177 18.2035 17.7606 17.7606C18.2035 17.3177 18.7678 17.0161 19.3822 16.8939C19.9965 16.7717 20.6333 16.8344 21.2119 17.0741C21.7906 17.3138 22.2852 17.7197 22.6332 18.2405C22.9812 18.7613 23.167 19.3736 23.167 20C23.167 20.8399 22.8333 21.6455 22.2394 22.2394C21.6455 22.8333 20.8399 23.167 20 23.167ZM25.0713 13.7887C24.8458 13.7887 24.6254 13.8556 24.4379 13.9809C24.2505 14.1061 24.1043 14.2842 24.0181 14.4925C23.9318 14.7008 23.9092 14.93 23.9532 15.1511C23.9972 15.3723 24.1057 15.5754 24.2652 15.7348C24.4246 15.8943 24.6277 16.0028 24.8489 16.0468C25.07 16.0908 25.2992 16.0682 25.5075 15.9819C25.7158 15.8957 25.8939 15.7495 26.0191 15.5621C26.1444 15.3746 26.2113 15.1542 26.2113 14.9287C26.2113 14.6264 26.0912 14.3364 25.8774 14.1226C25.6636 13.9088 25.3736 13.7887 25.0713 13.7887Z" fill="url(#paint0_linear_3153_31409)"/>
</g>
</g>
<rect x="0.5" y="0.5" width="39" height="39" rx="3.5" stroke="#DBE3E8"/>
<defs>
<filter id="filter0_dddd_3153_31409" x="4.5" y="9.5" width="31" height="41" filterUnits="userSpaceOnUse" color-interpolation-filters="sRGB">
<feFlood flood-opacity="0" result="BackgroundImageFix"/>
<feColorMatrix in="SourceAlpha" type="matrix" values="0 0 0 0 0 0 0 0 0 0 0 0 0 0 0 0 0 0 127 0" result="hardAlpha"/>
<feOffset dy="1"/>
<feGaussianBlur stdDeviation="1"/>
<feColorMatrix type="matrix" values="0 0 0 0 0 0 0 0 0 0 0 0 0 0 0 0 0 0 0.1 0"/>
<feBlend mode="normal" in2="BackgroundImageFix" result="effect1_dropShadow_3153_31409"/>
<feColorMatrix in="SourceAlpha" type="matrix" values="0 0 0 0 0 0 0 0 0 0 0 0 0 0 0 0 0 0 127 0" result="hardAlpha"/>
<feOffset dy="4"/>
<feGaussianBlur stdDeviation="2"/>
<feColorMatrix type="matrix" values="0 0 0 0 0 0 0 0 0 0 0 0 0 0 0 0 0 0 0.09 0"/>
<feBlend mode="normal" in2="effect1_dropShadow_3153_31409" result="effect2_dropShadow_3153_31409"/>
<feColorMatrix in="SourceAlpha" type="matrix" values="0 0 0 0 0 0 0 0 0 0 0 0 0 0 0 0 0 0 127 0" result="hardAlpha"/>
<feOffset dy="8"/>
<feGaussianBlur stdDeviation="2.5"/>
<feColorMatrix type="matrix" values="0 0 0 0 0 0 0 0 0 0 0 0 0 0 0 0 0 0 0.05 0"/>
<feBlend mode="normal" in2="effect2_dropShadow_3153_31409" result="effect3_dropShadow_3153_31409"/>
<feColorMatrix in="SourceAlpha" type="matrix" values="0 0 0 0 0 0 0 0 0 0 0 0 0 0 0 0 0 0 127 0" result="hardAlpha"/>
<feOffset dy="15"/>
<feGaussianBlur stdDeviation="3"/>
<feColorMatrix type="matrix" values="0 0 0 0 0 0 0 0 0 0 0 0 0 0 0 0 0 0 0.01 0"/>
<feBlend mode="normal" in2="effect3_dropShadow_3153_31409" result="effect4_dropShadow_3153_31409"/>
<feBlend mode="normal" in="SourceGraphic" in2="effect4_dropShadow_3153_31409" result="shape"/>
</filter>
<linearGradient id="paint0_linear_3153_31409" x1="20" y1="10.5" x2="20" y2="29.5" gradientUnits="userSpaceOnUse">
<stop stop-color="#9A1AF1"/>
<stop offset="0.5" stop-color="#D801B6"/>
<stop offset="0.75" stop-color="#F9076E"/>
<stop offset="0.875" stop-color="#FF4418"/>
<stop offset="1" stop-color="#FDC92A"/>
</linearGradient>
<clipPath id="clip0_3153_31409">
<rect width="40" height="40" rx="4" fill="white"/>
</clipPath>
</defs>
</svg>
