<svg width="40" height="40" viewBox="0 0 40 40" fill="none" xmlns="http://www.w3.org/2000/svg">
<g clip-path="url(#clip0_3153_31415)">
<rect width="40" height="40" rx="4" fill="white"/>
<g filter="url(#filter0_dddd_3153_31415)">
<path d="M27.6712 11H12.3288C11.9763 11 11.6384 11.14 11.3892 11.3892C11.14 11.6384 11 11.9763 11 12.3288V27.6712C11 28.0237 11.14 28.3616 11.3892 28.6108C11.6384 28.86 11.9763 29 12.3288 29H27.6712C28.0237 29 28.3616 28.86 28.6108 28.6108C28.86 28.3616 29 28.0237 29 27.6712V12.3288C29 11.9763 28.86 11.6384 28.6108 11.3892C28.3616 11.14 28.0237 11 27.6712 11ZM16.365 26.3337H13.6588V17.7375H16.365V26.3337ZM15.01 16.5463C14.703 16.5445 14.4034 16.4519 14.1491 16.2801C13.8947 16.1082 13.6969 15.8649 13.5807 15.5808C13.4644 15.2966 13.435 14.9844 13.496 14.6836C13.5571 14.3827 13.7059 14.1067 13.9236 13.8903C14.1414 13.674 14.4184 13.527 14.7196 13.4678C15.0208 13.4087 15.3328 13.4402 15.6162 13.5582C15.8996 13.6763 16.1417 13.8756 16.3118 14.1311C16.482 14.3866 16.5727 14.6868 16.5725 14.9938C16.5754 15.1993 16.5369 15.4033 16.4593 15.5936C16.3816 15.7839 16.2665 15.9567 16.1207 16.1016C15.9749 16.2464 15.8014 16.3605 15.6106 16.4369C15.4197 16.5133 15.2155 16.5505 15.01 16.5463ZM26.34 26.3412H23.635V21.645C23.635 20.26 23.0463 19.8325 22.2863 19.8325C21.4838 19.8325 20.6962 20.4375 20.6962 21.68V26.3412H17.99V17.7438H20.5925V18.935H20.6275C20.8888 18.4063 21.8038 17.5025 23.2 17.5025C24.71 17.5025 26.3412 18.3988 26.3412 21.0238L26.34 26.3412Z" fill="#2E7CB4"/>
</g>
</g>
<rect x="0.5" y="0.5" width="39" height="39" rx="3.5" stroke="#DBE3E8"/>
<defs>
<filter id="filter0_dddd_3153_31415" x="6.09091" y="10.1818" width="27.8182" height="36" filterUnits="userSpaceOnUse" color-interpolation-filters="sRGB">
<feFlood flood-opacity="0" result="BackgroundImageFix"/>
<feColorMatrix in="SourceAlpha" type="matrix" values="0 0 0 0 0 0 0 0 0 0 0 0 0 0 0 0 0 0 127 0" result="hardAlpha"/>
<feOffset dy="0.818182"/>
<feGaussianBlur stdDeviation="0.818182"/>
<feColorMatrix type="matrix" values="0 0 0 0 0 0 0 0 0 0 0 0 0 0 0 0 0 0 0.1 0"/>
<feBlend mode="normal" in2="BackgroundImageFix" result="effect1_dropShadow_3153_31415"/>
<feColorMatrix in="SourceAlpha" type="matrix" values="0 0 0 0 0 0 0 0 0 0 0 0 0 0 0 0 0 0 127 0" result="hardAlpha"/>
<feOffset dy="3.27273"/>
<feGaussianBlur stdDeviation="1.63636"/>
<feColorMatrix type="matrix" values="0 0 0 0 0 0 0 0 0 0 0 0 0 0 0 0 0 0 0.09 0"/>
<feBlend mode="normal" in2="effect1_dropShadow_3153_31415" result="effect2_dropShadow_3153_31415"/>
<feColorMatrix in="SourceAlpha" type="matrix" values="0 0 0 0 0 0 0 0 0 0 0 0 0 0 0 0 0 0 127 0" result="hardAlpha"/>
<feOffset dy="6.54545"/>
<feGaussianBlur stdDeviation="2.04545"/>
<feColorMatrix type="matrix" values="0 0 0 0 0 0 0 0 0 0 0 0 0 0 0 0 0 0 0.05 0"/>
<feBlend mode="normal" in2="effect2_dropShadow_3153_31415" result="effect3_dropShadow_3153_31415"/>
<feColorMatrix in="SourceAlpha" type="matrix" values="0 0 0 0 0 0 0 0 0 0 0 0 0 0 0 0 0 0 127 0" result="hardAlpha"/>
<feOffset dy="12.2727"/>
<feGaussianBlur stdDeviation="2.45455"/>
<feColorMatrix type="matrix" values="0 0 0 0 0 0 0 0 0 0 0 0 0 0 0 0 0 0 0.01 0"/>
<feBlend mode="normal" in2="effect3_dropShadow_3153_31415" result="effect4_dropShadow_3153_31415"/>
<feBlend mode="normal" in="SourceGraphic" in2="effect4_dropShadow_3153_31415" result="shape"/>
</filter>
<clipPath id="clip0_3153_31415">
<rect width="40" height="40" rx="4" fill="white"/>
</clipPath>
</defs>
</svg>
