<svg width="20" height="20" viewBox="0 0 20 20" fill="none" xmlns="http://www.w3.org/2000/svg">
<path d="M9.99935 1.67188C8.905 1.67187 7.82137 1.88742 6.81032 2.30621C5.79927 2.725 4.88061 3.33883 4.10679 4.11265C2.54399 5.67546 1.66602 7.79507 1.66602 10.0052C1.66602 12.2153 2.54399 14.335 4.10679 15.8978C4.88061 16.6716 5.79927 17.2854 6.81032 17.7042C7.82137 18.123 8.905 18.3385 9.99935 18.3385C12.2095 18.3385 14.3291 17.4606 15.8919 15.8978C17.4547 14.335 18.3327 12.2153 18.3327 10.0052C18.3327 8.91086 18.1171 7.82723 17.6983 6.81618C17.2796 5.80513 16.6657 4.88647 15.8919 4.11265C15.1181 3.33883 14.1994 2.725 13.1884 2.30621C12.1773 1.88742 11.0937 1.67188 9.99935 1.67188ZM13.4993 13.5052L9.16602 10.8385V5.83854H10.416V10.1719L14.166 12.4219L13.4993 13.5052Z" fill="#7994C1"/>
</svg>
