<svg xmlns="http://www.w3.org/2000/svg" width="28" height="28" viewBox="0 0 28 28" fill="none">
  <path d="M12.8333 2.33594C17.5793 2.33594 21.497 5.87794 22.0897 10.4618L24.7147 14.5906C24.8873 14.8624 24.8523 15.2673 24.4522 15.4399L22.1667 16.4176V19.8359C22.1667 21.1251 21.1225 22.1693 19.8333 22.1693H17.5012L17.5 25.6693H7V21.3596C7 19.9829 6.49133 18.6798 5.54867 17.5038C4.2665 15.9054 3.5 13.8766 3.5 11.6693C3.5 6.51494 7.679 2.33594 12.8333 2.33594ZM12.215 9.05944C11.417 8.26144 10.1243 8.26144 9.3275 9.05944C8.5295 9.85627 8.5295 11.1489 9.3275 11.9458L12.8333 15.4528L16.3392 11.9458C17.1372 11.1489 17.1372 9.85627 16.3392 9.05944C15.5423 8.26144 14.2497 8.26144 13.4517 9.05944L12.8333 9.67777L12.215 9.05944Z" fill="black"/>
  <path d="M12.8333 2.33594C17.5793 2.33594 21.497 5.87794 22.0897 10.4618L24.7147 14.5906C24.8873 14.8624 24.8523 15.2673 24.4522 15.4399L22.1667 16.4176V19.8359C22.1667 21.1251 21.1225 22.1693 19.8333 22.1693H17.5012L17.5 25.6693H7V21.3596C7 19.9829 6.49133 18.6798 5.54867 17.5038C4.2665 15.9054 3.5 13.8766 3.5 11.6693C3.5 6.51494 7.679 2.33594 12.8333 2.33594ZM12.215 9.05944C11.417 8.26144 10.1243 8.26144 9.3275 9.05944C8.5295 9.85627 8.5295 11.1489 9.3275 11.9458L12.8333 15.4528L16.3392 11.9458C17.1372 11.1489 17.1372 9.85627 16.3392 9.05944C15.5423 8.26144 14.2497 8.26144 13.4517 9.05944L12.8333 9.67777L12.215 9.05944Z" fill="url(#paint0_linear_2585_9319)"/>
  <defs>
    <linearGradient id="paint0_linear_2585_9319" x1="3.48761" y1="14.6908" x2="15.4972" y2="14.4626" gradientUnits="userSpaceOnUse">
      <stop stop-color="#5877A7"/>
      <stop offset="0.97855" stop-color="#5A92D3"/>
    </linearGradient>
  </defs>
</svg>