<svg xmlns="http://www.w3.org/2000/svg" width="275" height="281" viewBox="0 0 275 281" fill="none">
  <path d="M118.788 33.9693C117.149 28.0624 118.79 16.3622 121.776 11.0884C124.482 6.30853 129.722 2.69958 134.967 1.30404C139.141 0.194419 139.124 1.96437 141.552 1.89726C142.149 1.88073 142.738 1.24375 143.308 1.05508C145.021 0.488114 148.789 2.24931 150.27 3.11289C155.158 5.96134 158.596 9.75896 160.015 15.3148C160.9 18.7789 162.514 29.0767 161.923 32.2402C161.84 32.6934 161.775 33.1505 161.699 33.6037L161.896 33.804C162.569 33.7136 163.211 33.4627 163.752 34.0141C164.566 34.8407 164.385 36.2606 164.277 37.3147C164.049 39.5427 163.461 41.5685 162.427 43.5592C162.109 44.1718 161.105 45.5022 161.009 46.0993C160.997 46.1684 161.407 46.6926 161.447 46.7431C161.503 46.8132 161.56 46.8812 161.617 46.9512C161.62 47.1059 161.614 47.2605 161.601 47.4142C161.589 47.5678 161.568 47.7205 161.541 47.8722C161.513 48.0239 161.478 48.1747 161.434 48.3225C161.391 48.4713 161.341 48.6171 161.284 48.7601C161.227 48.904 161.162 49.0441 161.091 49.1812C161.02 49.3183 160.942 49.4515 160.856 49.5799C160.772 49.7093 160.681 49.8337 160.584 49.9543C160.487 50.0749 160.385 50.1897 160.276 50.2996C159.96 50.6156 159.678 50.7878 159.27 50.9599C158.951 50.886 158.837 50.9414 158.65 50.6361C157.617 48.9458 159.033 44.7349 159.225 42.7685C159.344 41.5062 159.324 40.2459 159.162 38.9894C157.647 43.0865 157.986 47.3665 157.208 51.5871C156.611 54.8158 154.918 57.4902 154.059 60.5643C153.069 64.112 153.88 72.3422 155.383 75.6429C157.142 79.5067 164.974 82.817 168.913 84.2165C164.813 84.3585 160.201 85.2532 156.588 87.2876C162.075 88.2504 167.222 88.2718 172.738 87.8244C174.891 87.6494 178.739 86.9716 180.777 87.2857C181.165 88.0948 180.76 89.1675 180.472 89.9853C180.179 90.8159 179.798 91.6473 179.405 92.4351C181.426 91.7903 183.329 90.8635 185.335 90.2139C188.609 91.2545 190.596 93.0575 192.152 96.0829C196.728 104.98 195.76 115.265 196.937 124.848C198.019 133.65 200.785 142.498 203.494 150.916C204.485 153.995 205.384 157.216 206.782 160.138C207.411 161.453 208.145 162.531 209.071 163.653C207.672 162.998 206.344 162.475 204.792 163.029C203.298 163.562 202.28 164.89 201.312 166.075C209.88 175.269 219.338 178.986 230.408 184.112C233.19 185.4 235.759 187.517 238.936 187.693C241.072 187.812 243.348 187.302 245.395 186.735C246.735 185.044 248.026 183.286 250.362 183.063C253.741 182.74 256.036 186.129 258.73 187.627C256.932 185.222 254.799 183.033 252.111 181.626C251.17 181.134 249.358 180.827 248.655 180.356C248.326 180.136 248.427 179.886 248.474 179.562C249.115 178.699 249.971 178.17 250.942 177.732C252.103 175.176 252.691 172.448 255.638 171.255C256.2 171.028 256.881 170.93 257.443 171.214C258.076 171.535 258.396 172.192 258.539 172.855C258.892 174.49 258.181 176.151 257.272 177.476C256.686 178.332 255.99 179.092 255.29 179.855C257.956 180.273 260.011 181.618 262.278 183.002C262.078 181.889 261.886 180.77 261.497 179.704C260.524 177.03 257.643 172.642 259.383 169.782C259.665 169.317 259.926 169.228 260.423 169.063C261.592 169.212 262.334 169.886 263.031 170.806C264.196 172.339 268.253 179.691 268.689 181.365C269.644 179.922 271.484 177.211 273.284 176.878C273.695 176.802 274.091 176.878 274.416 177.143C274.732 177.398 274.897 177.633 275.005 178.019C274.754 179.397 274.161 180.648 273.817 181.996C273.426 183.528 273.311 185.186 272.794 186.675C272.605 187.217 272.293 187.949 271.784 188.267C271.295 188.572 270.384 188.464 269.826 188.455C268.76 189.379 268.649 192.35 268.116 193.759C267.196 194.336 266.296 194.813 265.187 194.819C264.756 194.548 264.772 194.195 264.63 193.721C263.836 193.959 263.038 195.582 262.469 196.255C260.251 198.879 251.812 198.036 248.568 198.074C251.864 200.742 253.829 203.283 254.305 207.62C254.755 211.714 254.645 219.023 251.89 222.374C249.428 225.367 245.671 227.456 242.647 229.872C238.974 232.803 235.489 235.95 231.771 238.834C225.72 243.53 219.364 247.528 212.648 251.189C209.065 253.141 205.403 255.139 201.429 256.157C204.079 256.864 207.621 257.337 209.122 259.938C209.822 261.149 210.172 263.027 209.738 264.382C209.502 265.122 209.016 265.521 208.346 265.866L208.364 266.144C209.163 266.8 209.283 267.259 209.387 268.331C209.578 270.294 208.223 271.164 207.216 272.612C206.798 273.215 206.542 273.956 206.075 274.52C205.808 274.841 205.523 275.009 205.13 275.128C204.595 275.007 204.107 274.863 203.555 274.956C203.135 275.52 203.786 276.18 203.301 276.777C202.297 278.012 197.561 279.196 195.987 279.428C191.878 280.033 185.814 279.006 181.541 278.66C173.408 278.001 165.302 278.129 157.171 277.211C152.904 276.73 148.689 276.008 144.454 275.319C141.62 274.858 138.695 274.254 135.816 274.245C132.819 274.235 129.804 274.952 126.87 275.497C123.814 276.095 120.737 276.559 117.64 276.887C111.613 277.508 105.463 277.026 99.4955 277.885C94.281 278.634 89.6324 280.683 84.2652 280.489C82.7345 277.927 81.7912 279.745 79.6867 276.962C80.9626 276.054 82.3912 275.18 83.5387 274.116C82.222 274.498 80.2507 275.439 78.9758 274.815C78.119 273.882 78.3193 272.754 78.3514 271.583C77.0765 270.232 75.9367 269.073 75.9814 267.07C76.0223 265.275 77.092 263.703 78.4224 262.572C79.0273 262.06 79.7246 261.638 80.4131 261.249C68.0322 257.018 55.8876 251.756 45.0628 244.349C41.4091 241.85 38.086 238.931 34.4995 236.35C29.7041 232.897 24.5284 230.326 21.8161 224.782C19.2059 219.448 18.8218 211.8 20.8135 206.216C21.8142 203.409 23.5423 201.008 26.3081 199.704C26.9558 199.398 27.6686 199.188 28.3513 198.971C26.3548 198.913 24.3349 198.896 22.3549 198.616C19.8458 198.262 8.88575 195.77 7.49605 194.089C6.30377 192.645 6.57898 189.857 5.66289 188.202C5.38183 188.718 5.4149 189.293 4.95686 189.652C3.82876 188.933 2.30193 187.615 1.48211 186.542C1.48211 186.424 1.48405 186.307 1.48211 186.19C1.45974 184.174 -0.388979 178.935 0.104079 177.692C0.709946 177.169 1.38097 177.157 2.14924 177.218C2.77845 177.267 3.25595 177.401 3.6819 177.9C4.55424 178.921 4.58828 180.794 4.8032 182.096C5.98381 177.699 9.47217 171.995 12.1991 168.276C14.5622 169.768 13.3602 169.354 14.5486 171.12C14.7159 171.369 14.711 171.309 14.925 171.285C16.2242 171.148 18.4046 171.84 19.4043 172.666C20.937 173.935 21.9795 176.271 23.1903 177.869C24.2979 179.331 25.5797 180.689 26.806 182.053C25.6186 182.533 18.5757 183.307 17.4428 182.993C17.4583 181.675 18.0934 180.399 18.5699 179.185C16.9507 177.46 14.8725 175.925 13.6685 173.885C13.6432 173.964 13.6189 174.042 13.5936 174.121C12.4218 177.645 10.7607 178.896 10.9416 182.988C12.0853 182.094 13.3952 181.287 14.9172 181.52C16.0696 181.698 16.6132 182.309 17.3018 183.175C17.7627 184.163 17.5566 184.877 17.2862 185.896C17.8843 185.564 18.4999 185.282 19.1563 185.082C22.9238 183.937 27.0579 184.846 30.1913 187.134C31.4701 188.069 32.6712 189.294 34.0842 190.006C34.1348 190.031 34.1863 190.055 34.2379 190.079C35.3718 189.964 36.4843 189.847 37.5813 189.515C44.1885 187.513 54.6059 181.134 60.3543 177.153C62.4141 175.727 64.2891 173.986 66.4218 172.675C70.1114 170.407 74.0481 168.795 78.012 167.098C76.421 165.812 75.0167 164.881 73.0892 164.176C75.3999 160.281 75.6557 154.972 76.5105 150.585C77.905 143.429 80.1875 136.319 81.091 129.093C82.4816 117.991 81.3953 107.013 85.1191 96.2035C86.3775 92.5488 88.1698 89.926 91.7194 88.2008C94.281 88.9302 96.5109 91.0677 98.5259 92.719C97.8821 90.4833 97.4426 88.4488 95.554 86.9142C101.22 86.4396 106.809 87.5784 112.433 88.0676C116.088 88.3807 119.737 88.3165 123.379 87.874C118.543 85.9222 113.544 84.6473 108.511 83.3198C110.477 82.4592 112.381 81.474 114.289 80.4937C118.026 78.574 121.673 76.9208 123.293 72.7303C124.774 68.8967 125.03 63.0811 124.24 59.055C123.629 55.9439 122.548 52.9905 122.239 49.8065C121.745 50.4581 121.263 51.1242 120.728 51.7437C120.13 51.3401 119.509 50.9511 118.947 50.496C118.831 49.6704 118.728 48.8642 118.677 48.0317C118.597 46.7373 118.119 45.5965 117.621 44.4179C115.592 39.6157 115.035 37.7242 116.366 32.5933C117.179 33.0387 117.994 33.4782 118.785 33.9645L118.788 33.9693Z" fill="black"/>
</svg>