<svg width="59" height="52" viewBox="0 0 59 52" fill="none" xmlns="http://www.w3.org/2000/svg">
  <path
    d="M42.5031 2.87081V24.469C42.5031 25.7639 41.4154 26.8516 40.1206 26.8516H4.38253C3.08768 26.8516 2 25.8156 2 24.469V2.87081C2 1.57595 3.08768 0.488281 4.38253 0.488281H40.1206C41.4154 0.488281 42.5031 1.57595 42.5031 2.87081Z"
    fill="#B0C2DD" />
  <path opacity="0.3"
    d="M42.5042 10.0703V24.4691C42.5042 25.7639 41.4165 26.8517 40.1217 26.8517H10.1846V12.4528C10.1846 11.158 11.2205 10.0703 12.5671 10.0703H42.5042Z"
    fill="#989FB0" />
  <g filter="url(#filter0_d_0_1)">
    <path
      d="M48.8745 37.7305H15.6744C13.6545 37.7305 12.0488 36.1249 12.0488 34.1049V14.9928C12.0488 12.9728 13.6545 11.3672 15.6744 11.3672H48.8745C50.8945 11.3672 52.5001 12.9728 52.5001 14.9928V34.1049C52.5001 36.1249 50.8945 37.7305 48.8745 37.7305Z"
      fill="#F5F8FB" />
  </g>
  <path
    d="M22.3041 31.7746H17.0211C16.5549 31.7746 16.1924 31.412 16.1924 30.9459C16.1924 30.4797 16.5549 30.1172 17.0211 30.1172H22.3041C22.7703 30.1172 23.1328 30.4797 23.1328 30.9459C23.1328 31.412 22.7703 31.7746 22.3041 31.7746Z"
    fill="#C8D6EB" />
  <path
    d="M30.85 31.7746H25.567C25.1008 31.7746 24.7383 31.412 24.7383 30.9459C24.7383 30.4797 25.1008 30.1172 25.567 30.1172H30.85C31.3162 30.1172 31.6787 30.4797 31.6787 30.9459C31.6787 31.412 31.3162 31.7746 30.85 31.7746Z"
    fill="#C8D6EB" />
  <path
    d="M39.3959 31.7746H34.1129C33.6467 31.7746 33.2842 31.412 33.2842 30.9459C33.2842 30.4797 33.6467 30.1172 34.1129 30.1172H39.3959C39.8621 30.1172 40.2246 30.4797 40.2246 30.9459C40.2246 31.412 39.8621 31.7746 39.3959 31.7746Z"
    fill="#C8D6EB" />
  <path
    d="M47.9418 31.7746H42.6588C42.1926 31.7746 41.8301 31.412 41.8301 30.9459C41.8301 30.4797 42.1926 30.1172 42.6588 30.1172H47.9418C48.408 30.1172 48.7705 30.4797 48.7705 30.9459C48.7705 31.412 48.408 31.7746 47.9418 31.7746Z"
    fill="#C8D6EB" />
  <path
    d="M46.0256 21.8286C47.7421 21.8286 49.1333 20.4405 49.1333 18.7209C49.1333 17.0065 47.7421 15.6133 46.0256 15.6133C44.3092 15.6133 42.918 17.0065 42.918 18.7209C42.918 20.4405 44.3092 21.8286 46.0256 21.8286Z"
    fill="#989FB0" />
  <path
    d="M41.9338 21.8286C43.6503 21.8286 45.0415 20.4405 45.0415 18.7209C45.0415 17.0065 43.6503 15.6133 41.9338 15.6133C40.2174 15.6133 38.8262 17.0065 38.8262 18.7209C38.8262 20.4405 40.2174 21.8286 41.9338 21.8286Z"
    fill="#AEC0DB" />
  <path d="M42.5041 4.89453H2.05273V9.97033H42.5041V4.89453Z" fill="#86A2CA" />
  <path
    d="M22.7703 22.8142H16.9693C16.5549 22.8142 16.1924 22.4517 16.1924 22.0373V18.3082C16.1924 17.8938 16.5549 17.5312 16.9693 17.5312H22.7185C23.1328 17.5312 23.4954 17.8938 23.4954 18.3082V22.0373C23.5472 22.4517 23.1846 22.8142 22.7703 22.8142Z"
    fill="#ADBFDA" />
  <defs>
    <filter id="filter0_d_0_1" x="0.654087" y="5.66982" width="63.2407" height="49.1528"
      filterUnits="userSpaceOnUse" color-interpolation-filters="sRGB">
      <feFlood flood-opacity="0" result="BackgroundImageFix" />
      <feColorMatrix in="SourceAlpha" type="matrix"
        values="0 0 0 0 0 0 0 0 0 0 0 0 0 0 0 0 0 0 127 0" result="hardAlpha" />
      <feOffset dy="5.69737" />
      <feGaussianBlur stdDeviation="5.69737" />
      <feColorMatrix type="matrix"
        values="0 0 0 0 0.397708 0 0 0 0 0.47749 0 0 0 0 0.575 0 0 0 0.27 0" />
      <feBlend mode="normal" in2="BackgroundImageFix" result="effect1_dropShadow_0_1" />
      <feBlend mode="normal" in="SourceGraphic" in2="effect1_dropShadow_0_1" result="shape" />
    </filter>
  </defs>
</svg>