<svg width="40" height="40" viewBox="0 0 40 40" fill="none" xmlns="http://www.w3.org/2000/svg">
<rect x="0.5" y="0.5" width="39" height="39" rx="7.5" fill="white"/>
<rect x="0.5" y="0.5" width="39" height="39" rx="7.5" stroke="#DBE3E8"/>
<path fill-rule="evenodd" clip-rule="evenodd" d="M20 10H14.75C13.2312 10 12 11.2312 12 12.75V27.25C12 28.7688 13.2312 30 14.75 30H25.25C26.7688 30 28 28.7688 28 27.25V18H22.75C21.2312 18 20 16.7688 20 15.25V10ZM16 22.25C16 21.8358 16.3358 21.5 16.75 21.5H20.25C20.6642 21.5 21 21.8358 21 22.25C21 22.6642 20.6642 23 20.25 23H16.75C16.3358 23 16 22.6642 16 22.25ZM16.75 25.5C16.3358 25.5 16 25.8358 16 26.25C16 26.6642 16.3358 27 16.75 27H23.25C23.6642 27 24 26.6642 24 26.25C24 25.8358 23.6642 25.5 23.25 25.5H16.75Z" fill="#0F3677"/>
<path d="M27.5566 16.4999C27.5343 16.4749 27.5112 16.4505 27.4874 16.4267L21.5732 10.5125C21.5494 10.4887 21.525 10.4656 21.5 10.4434V15.2499C21.5 15.9403 22.0596 16.4999 22.75 16.4999H27.5566Z" fill="#0F3677"/>
</svg>
