<svg xmlns="http://www.w3.org/2000/svg" width="27" height="26" viewBox="0 0 27 26" fill="none">
  <path d="M12.5547 22.8846H11.9637V21.7422H7.31526V22.8846H6.68496C6.48799 22.8846 6.29102 23.0816 6.29102 23.2786C6.29102 23.5149 6.48799 23.6725 6.68496 23.6725H7.31526V24.0664C7.31526 24.9331 8.02435 25.6028 8.85162 25.6028H10.388C11.2547 25.6028 11.9243 24.8937 11.9243 24.0664V23.6725H12.5153C12.7516 23.6725 12.9092 23.5149 12.9092 23.2786C12.9486 23.0816 12.791 22.8846 12.5547 22.8846Z" fill="black"/>
  <path d="M12.5547 22.8846H11.9637V21.7422H7.31526V22.8846H6.68496C6.48799 22.8846 6.29102 23.0816 6.29102 23.2786C6.29102 23.5149 6.48799 23.6725 6.68496 23.6725H7.31526V24.0664C7.31526 24.9331 8.02435 25.6028 8.85162 25.6028H10.388C11.2547 25.6028 11.9243 24.8937 11.9243 24.0664V23.6725H12.5153C12.7516 23.6725 12.9092 23.5149 12.9092 23.2786C12.9486 23.0816 12.791 22.8846 12.5547 22.8846Z" fill="url(#paint0_linear_2585_9327)"/>
  <path d="M14.5246 9.85238L11.1368 8.86753C9.52161 10.3251 6.80343 8.78874 7.47312 6.54329C7.78828 5.59783 8.65494 4.92813 9.63979 4.92813C10.4671 4.92813 11.2155 5.36147 11.6095 6.10995C11.6883 6.26753 11.7671 6.42511 11.8065 6.58268L15.1155 7.56753C15.9428 6.77965 16.8095 7.01601 17.0459 6.97662C16.8489 3.90389 14.0913 0.831165 10.5065 0.437226C8.33979 0.200862 6.25191 0.870559 4.67615 2.28874C3.1004 3.70692 2.19434 5.75541 2.19434 7.84329C2.19434 10.2463 3.37615 12.5312 5.30646 13.91C5.93676 14.3827 6.48828 15.4857 6.76403 16.5493H9.28525V11.3493H8.53676C8.33979 11.3493 8.14282 11.1918 8.14282 10.9554C8.14282 10.7584 8.33979 10.5615 8.53676 10.5615H10.8216C11.0186 10.5615 11.2155 10.7584 11.2155 10.9554C11.2155 11.1918 11.0186 11.3493 10.8216 11.3493H10.0731V16.5887H12.5943C12.8701 15.5251 13.4216 14.3827 14.0913 13.91C14.9974 13.2403 15.7459 12.413 16.258 11.4281C15.4307 11.2706 14.761 10.6403 14.5246 9.85238Z" fill="black"/>
  <path d="M14.5246 9.85238L11.1368 8.86753C9.52161 10.3251 6.80343 8.78874 7.47312 6.54329C7.78828 5.59783 8.65494 4.92813 9.63979 4.92813C10.4671 4.92813 11.2155 5.36147 11.6095 6.10995C11.6883 6.26753 11.7671 6.42511 11.8065 6.58268L15.1155 7.56753C15.9428 6.77965 16.8095 7.01601 17.0459 6.97662C16.8489 3.90389 14.0913 0.831165 10.5065 0.437226C8.33979 0.200862 6.25191 0.870559 4.67615 2.28874C3.1004 3.70692 2.19434 5.75541 2.19434 7.84329C2.19434 10.2463 3.37615 12.5312 5.30646 13.91C5.93676 14.3827 6.48828 15.4857 6.76403 16.5493H9.28525V11.3493H8.53676C8.33979 11.3493 8.14282 11.1918 8.14282 10.9554C8.14282 10.7584 8.33979 10.5615 8.53676 10.5615H10.8216C11.0186 10.5615 11.2155 10.7584 11.2155 10.9554C11.2155 11.1918 11.0186 11.3493 10.8216 11.3493H10.0731V16.5887H12.5943C12.8701 15.5251 13.4216 14.3827 14.0913 13.91C14.9974 13.2403 15.7459 12.413 16.258 11.4281C15.4307 11.2706 14.761 10.6403 14.5246 9.85238Z" fill="url(#paint1_linear_2585_9327)"/>
  <path d="M24.4124 8.15644C23.8215 7.56553 22.9155 7.56553 22.3246 8.15644C22.1276 8.35341 22.0094 8.58977 21.9306 8.82614H18.0306C17.9912 8.70795 17.9518 8.58977 17.873 8.47159L20.2761 5.32008C21.2609 5.7928 22.4033 5.08371 22.4033 4.02008C22.4033 3.1928 21.7337 2.5625 20.9458 2.5625C20.1185 2.5625 19.4882 3.2322 19.4882 4.02008C19.4882 4.29583 19.567 4.57159 19.7246 4.80795L17.3215 7.95947C17.1246 7.84129 16.8882 7.80189 16.6518 7.7625C16.1003 7.7625 15.6276 8.03826 15.3912 8.47159L11.0973 7.17159C11.0973 6.93523 11.0579 6.65947 10.9397 6.4625C10.3094 5.32008 8.61547 5.47765 8.26092 6.73826C7.7882 8.35341 9.99426 9.37765 10.9003 7.95947L15.2337 9.25947C15.273 10.3231 16.3761 11.0322 17.3609 10.5595L19.764 13.6716C19.6458 13.8686 19.567 14.1443 19.567 14.3807C19.567 16.311 22.4821 16.311 22.4821 14.3807C22.4821 13.5928 21.8124 12.9231 21.0246 12.9231C20.7882 12.9231 20.5124 13.0019 20.3155 13.1201L17.9518 10.008C18.0306 9.88977 18.07 9.77159 18.1094 9.61402H22.0094C22.0882 9.85038 22.2064 10.0473 22.364 10.2049C22.9155 10.7958 23.8609 10.7958 24.4518 10.2049C25.0033 9.65341 25.0033 8.74735 24.4124 8.15644Z" fill="black"/>
  <path d="M24.4124 8.15644C23.8215 7.56553 22.9155 7.56553 22.3246 8.15644C22.1276 8.35341 22.0094 8.58977 21.9306 8.82614H18.0306C17.9912 8.70795 17.9518 8.58977 17.873 8.47159L20.2761 5.32008C21.2609 5.7928 22.4033 5.08371 22.4033 4.02008C22.4033 3.1928 21.7337 2.5625 20.9458 2.5625C20.1185 2.5625 19.4882 3.2322 19.4882 4.02008C19.4882 4.29583 19.567 4.57159 19.7246 4.80795L17.3215 7.95947C17.1246 7.84129 16.8882 7.80189 16.6518 7.7625C16.1003 7.7625 15.6276 8.03826 15.3912 8.47159L11.0973 7.17159C11.0973 6.93523 11.0579 6.65947 10.9397 6.4625C10.3094 5.32008 8.61547 5.47765 8.26092 6.73826C7.7882 8.35341 9.99426 9.37765 10.9003 7.95947L15.2337 9.25947C15.273 10.3231 16.3761 11.0322 17.3609 10.5595L19.764 13.6716C19.6458 13.8686 19.567 14.1443 19.567 14.3807C19.567 16.311 22.4821 16.311 22.4821 14.3807C22.4821 13.5928 21.8124 12.9231 21.0246 12.9231C20.7882 12.9231 20.5124 13.0019 20.3155 13.1201L17.9518 10.008C18.0306 9.88977 18.07 9.77159 18.1094 9.61402H22.0094C22.0882 9.85038 22.2064 10.0473 22.364 10.2049C22.9155 10.7958 23.8609 10.7958 24.4518 10.2049C25.0033 9.65341 25.0033 8.74735 24.4124 8.15644Z" fill="url(#paint2_linear_2585_9327)"/>
  <path d="M5.3457 20.5708C5.3457 20.8071 5.50328 20.9647 5.73964 20.9647H13.5396C13.776 20.9647 13.9336 20.8071 13.9336 20.5708V19.5859H5.3457V20.5708Z" fill="black"/>
  <path d="M5.3457 20.5708C5.3457 20.8071 5.50328 20.9647 5.73964 20.9647H13.5396C13.776 20.9647 13.9336 20.8071 13.9336 20.5708V19.5859H5.3457V20.5708Z" fill="url(#paint3_linear_2585_9327)"/>
  <path d="M13.5396 17.3672H5.73964C5.50328 17.3672 5.3457 17.5248 5.3457 17.7611V18.746H13.9336V17.7611C13.9336 17.5642 13.7366 17.3672 13.5396 17.3672Z" fill="black"/>
  <path d="M13.5396 17.3672H5.73964C5.50328 17.3672 5.3457 17.5248 5.3457 17.7611V18.746H13.9336V17.7611C13.9336 17.5642 13.7366 17.3672 13.5396 17.3672Z" fill="url(#paint4_linear_2585_9327)"/>
  <defs>
    <linearGradient id="paint0_linear_2585_9327" x1="8.25612" y1="24.7487" x2="8.23437" y2="22.7083" gradientUnits="userSpaceOnUse">
      <stop stop-color="#5382CA"/>
      <stop offset="0.97855" stop-color="#5492DA"/>
    </linearGradient>
    <linearGradient id="paint1_linear_2585_9327" x1="6.60011" y1="13.0053" x2="6.42935" y2="4.44677" gradientUnits="userSpaceOnUse">
      <stop stop-color="#5382CA"/>
      <stop offset="0.97855" stop-color="#5492DA"/>
    </linearGradient>
    <linearGradient id="paint2_linear_2585_9327" x1="13.1392" y1="12.8937" x2="13.0371" y2="5.88309" gradientUnits="userSpaceOnUse">
      <stop stop-color="#5382CA"/>
      <stop offset="0.97855" stop-color="#5492DA"/>
    </linearGradient>
    <linearGradient id="paint3_linear_2585_9327" x1="7.89334" y1="20.6597" x2="7.8912" y2="19.9309" gradientUnits="userSpaceOnUse">
      <stop stop-color="#5382CA"/>
      <stop offset="0.97855" stop-color="#5492DA"/>
    </linearGradient>
    <linearGradient id="paint4_linear_2585_9327" x1="7.89334" y1="18.441" x2="7.8912" y2="17.7122" gradientUnits="userSpaceOnUse">
      <stop stop-color="#5382CA"/>
      <stop offset="0.97855" stop-color="#5492DA"/>
    </linearGradient>
  </defs>
</svg>