<svg
  width="58"
  height="58"
  viewBox="0 0 58 58"
  fill="none"
  xmlns="http://www.w3.org/2000/svg"
>
  <path
    d="M29 58C45.0163 58 58 45.0163 58 29C58 12.9837 45.0163 0 29 0C12.9837 0 0 12.9837 0 29C0 45.0163 12.9837 58 29 58Z"
    fill="#FFDA24"
  />
  <path
    d="M58 29C58 45.0157 45.0157 58 29 58C12.9843 58 0 45.0157 0 29C0 27.8502 0.0668359 26.7163 0.197109 25.6016C1.87934 40.0155 14.1341 51.2031 29 51.2031C43.8659 51.2031 56.1207 40.0155 57.8029 25.6016C57.9332 26.7163 58 27.8502 58 29Z"
    fill="#FFC024"
  />
  <path
    d="M17.6968 25.7578H40.3043C42.0375 25.7578 43.4445 27.1648 43.4445 28.898V28.9535C43.4445 36.8945 36.9977 43.3413 29.0566 43.3413H29.0011C21.0295 43.3413 14.5578 36.8696 14.5578 28.898C14.5578 27.1648 15.9647 25.7578 17.6979 25.7578H17.6968Z"
    fill="#473535"
  />
  <path
    d="M37.9266 40.2855C35.482 42.2011 32.403 43.3441 29.0555 43.3441H29C25.6367 43.3441 22.543 42.1955 20.0882 40.2674C22.1034 37.5373 25.3455 35.7656 29 35.7656C32.6545 35.7656 35.9113 37.5441 37.9266 40.2855Z"
    fill="#FF7E27"
  />
  <path
    d="M41.9989 25.3347V25.9995C41.9989 27.6558 40.2956 29 38.1942 29H19.8047C17.7033 29 16 27.6558 16 25.9995V25.3347C16.4668 25.1218 17.0078 25 17.5855 25H40.4146C40.9911 25 41.5333 25.1218 42 25.3347H41.9989Z"
    fill="white"
  />
  <path
    d="M47.2779 1.01005L47.9587 7.2122C47.9995 7.58263 48.2204 7.91001 48.5478 8.08673L54.0431 11.0411C54.87 11.4863 54.8281 12.686 53.9717 13.0711L48.2839 15.6358C47.944 15.7887 47.7016 16.1002 47.6348 16.4661L46.5223 22.6049C46.3547 23.5292 45.2003 23.86 44.5694 23.1645L40.3734 18.5471C40.1231 18.2707 39.7527 18.1359 39.3822 18.1869L33.2005 19.0263C32.2704 19.1532 31.5987 18.1574 32.0643 17.3418L35.158 11.9247C35.3426 11.6007 35.3562 11.2065 35.1942 10.8712L32.4857 5.2513C32.0778 4.40509 32.8176 3.45919 33.7363 3.65064L39.8444 4.91939C40.2092 4.99529 40.5887 4.88654 40.8583 4.62826L45.3691 0.315639C46.0477 -0.333463 47.176 0.0777484 47.2779 1.01005Z"
    fill="#0F3677"
  />
  <path
    d="M10.7221 1.01005L10.0412 7.2122C10.0005 7.58263 9.77957 7.91001 9.45219 8.08673L3.95691 11.0411C3.12996 11.4863 3.17187 12.686 4.02828 13.0711L9.71613 15.6358C10.056 15.7887 10.2984 16.1002 10.3652 16.4661L11.4777 22.6049C11.6453 23.5292 12.7996 23.86 13.4306 23.1645L17.6266 18.5471C17.8769 18.2707 18.2473 18.1359 18.6178 18.1869L24.7995 19.0263C25.7296 19.1532 26.4013 18.1574 25.9357 17.3418L22.842 11.9247C22.6574 11.6007 22.6438 11.2065 22.8058 10.8712L25.5143 5.2513C25.9221 4.40509 25.1824 3.45919 24.2637 3.65064L18.1556 4.91939C17.7908 4.99529 17.4113 4.88654 17.1417 4.62826L12.6309 0.315639C11.9523 -0.333463 10.824 0.0777484 10.7221 1.01005Z"
    fill="#0F3677"
  />
</svg>