<svg width="33" height="32" viewBox="0 0 33 32" fill="none" xmlns="http://www.w3.org/2000/svg">
<path d="M16.4996 3.43945C10.6545 3.43945 5.4398 7.64073 4.21708 13.3617C3.6062 16.2203 4.01772 19.2599 5.3806 21.8465C6.69228 24.3358 8.84268 26.3476 11.4155 27.4878C14.0916 28.674 17.164 28.8807 19.9768 28.0718C22.6904 27.2916 25.0964 25.5793 26.7345 23.2807C30.1595 18.4753 29.7016 11.7252 25.6721 7.41929C23.3105 4.89577 19.9563 3.43945 16.4996 3.43945ZM22.5249 16.6705L19.1009 20.1771C18.234 21.0651 16.8638 19.7198 17.7272 18.8359L19.4548 17.0667H11.2673C10.6859 17.0667 10.2008 16.5812 10.2008 16.0001C10.2008 15.419 10.6862 14.9335 11.2673 14.9335H19.4139L17.652 13.1719C16.7764 12.2964 18.1339 10.9387 19.0094 11.8142L22.5169 15.3214C22.8888 15.6929 22.8923 16.2945 22.5249 16.6705Z" fill="#4EF4FF"/>
</svg>
