<svg xmlns="http://www.w3.org/2000/svg" width="28" height="28" viewBox="0 0 28 28" fill="none">
  <path d="M18.123 22.6133C18.123 22.8977 18.0191 23.1602 17.8387 23.357H8.16992C7.53007 22.668 8.06054 21.4648 9.0121 21.4867H16.9965C17.6199 21.4867 18.123 21.9898 18.123 22.6133ZM8.16992 24.1172C7.53007 24.8062 8.06054 26.0094 9.0121 25.9875H16.9965C17.948 26.0094 18.4785 24.8008 17.8332 24.1172H8.16992ZM11.3473 27.9453H14.6668C15.3777 27.9453 15.9629 27.4258 16.0777 26.7477H9.93632C10.0512 27.4258 10.6363 27.9453 11.3473 27.9453ZM18.5277 16.7453C17.3574 17.7625 16.641 19.1953 16.4934 20.7266H14.0707V5.41406C14.0707 5.09141 14.3441 4.83437 14.6668 4.86172C20.6496 5.39219 22.9848 12.9008 18.5277 16.7453ZM19.5887 11.6266C19.6051 9.32969 18.0957 7.175 15.9191 6.42578C15.6949 6.34375 15.4379 6.46406 15.3613 6.69375C15.2793 6.92344 15.3941 7.16953 15.6238 7.25156C17.4504 7.88047 18.7246 9.69063 18.7082 11.6266C18.7191 12.2008 19.5832 12.2008 19.5887 11.6266ZM8.45976 18.1234C8.74413 17.8281 9.38945 17.4453 9.63007 17.9867C9.71757 18.2109 9.60273 18.468 9.37304 18.5555C8.38867 19.0039 8.89726 20.3328 9.50976 20.7266H11.473C11.8941 20.4203 12.1676 19.9281 12.1676 19.3703V6.97266C12.1566 5.18437 9.70664 4.65938 8.97382 6.28359C9.56445 6.39844 11.309 7.88594 10.0566 8.16484C9.64101 8.14844 9.54804 7.59609 9.21992 7.41016C7.57382 6.10859 5.2332 7.89141 5.94413 9.78906C6.68789 9.65234 7.66679 10.0188 8.16445 10.6477C8.41054 10.9156 8.18632 11.3805 7.83085 11.3695C7.70507 11.3695 7.58476 11.3148 7.49726 11.2109C7.38242 11.0742 7.12539 10.8227 6.7207 10.7078C6.43632 10.6148 6.04257 10.6367 5.81289 10.7133C3.54335 11.375 3.35742 14.6016 5.52304 15.5258C5.81835 15.05 7.54648 13.732 7.8582 14.6562C7.91835 14.8914 7.7707 15.132 7.54101 15.1867C5.04726 15.8047 5.39179 19.3047 7.9621 19.3758C7.96757 18.9492 8.10429 18.4789 8.45976 18.1234ZM19.9605 6.23984C20.0754 6.23984 20.1848 6.19609 20.2723 6.11406L22.3012 4.08516C22.7004 3.66953 22.0934 3.0625 21.6832 3.46719L19.6543 5.49609C19.3699 5.75313 19.5832 6.25078 19.9605 6.23984ZM25.2652 11.2492H22.3996C21.8199 11.2602 21.8254 12.1187 22.3996 12.1242H25.2652C25.8449 12.1187 25.8394 11.2602 25.2652 11.2492ZM20.2668 17.2703C19.8512 16.8711 19.2441 17.4781 19.6488 17.8883L21.6777 19.9172C22.0879 20.3219 22.7004 19.7039 22.2957 19.2992C22.2957 19.2937 20.2668 17.2703 20.2668 17.2703ZM14.0707 3.80078C14.3113 3.80078 14.5082 3.60391 14.5082 3.36328V0.492188C14.5082 0.251562 14.3113 0.0546875 14.0707 0.0546875C13.8301 0.0546875 13.6332 0.251562 13.6332 0.492188V3.35781C13.6332 3.60391 13.8301 3.80078 14.0707 3.80078Z" fill="black"/>
  <path d="M18.123 22.6133C18.123 22.8977 18.0191 23.1602 17.8387 23.357H8.16992C7.53007 22.668 8.06054 21.4648 9.0121 21.4867H16.9965C17.6199 21.4867 18.123 21.9898 18.123 22.6133ZM8.16992 24.1172C7.53007 24.8062 8.06054 26.0094 9.0121 25.9875H16.9965C17.948 26.0094 18.4785 24.8008 17.8332 24.1172H8.16992ZM11.3473 27.9453H14.6668C15.3777 27.9453 15.9629 27.4258 16.0777 26.7477H9.93632C10.0512 27.4258 10.6363 27.9453 11.3473 27.9453ZM18.5277 16.7453C17.3574 17.7625 16.641 19.1953 16.4934 20.7266H14.0707V5.41406C14.0707 5.09141 14.3441 4.83437 14.6668 4.86172C20.6496 5.39219 22.9848 12.9008 18.5277 16.7453ZM19.5887 11.6266C19.6051 9.32969 18.0957 7.175 15.9191 6.42578C15.6949 6.34375 15.4379 6.46406 15.3613 6.69375C15.2793 6.92344 15.3941 7.16953 15.6238 7.25156C17.4504 7.88047 18.7246 9.69063 18.7082 11.6266C18.7191 12.2008 19.5832 12.2008 19.5887 11.6266ZM8.45976 18.1234C8.74413 17.8281 9.38945 17.4453 9.63007 17.9867C9.71757 18.2109 9.60273 18.468 9.37304 18.5555C8.38867 19.0039 8.89726 20.3328 9.50976 20.7266H11.473C11.8941 20.4203 12.1676 19.9281 12.1676 19.3703V6.97266C12.1566 5.18437 9.70664 4.65938 8.97382 6.28359C9.56445 6.39844 11.309 7.88594 10.0566 8.16484C9.64101 8.14844 9.54804 7.59609 9.21992 7.41016C7.57382 6.10859 5.2332 7.89141 5.94413 9.78906C6.68789 9.65234 7.66679 10.0188 8.16445 10.6477C8.41054 10.9156 8.18632 11.3805 7.83085 11.3695C7.70507 11.3695 7.58476 11.3148 7.49726 11.2109C7.38242 11.0742 7.12539 10.8227 6.7207 10.7078C6.43632 10.6148 6.04257 10.6367 5.81289 10.7133C3.54335 11.375 3.35742 14.6016 5.52304 15.5258C5.81835 15.05 7.54648 13.732 7.8582 14.6562C7.91835 14.8914 7.7707 15.132 7.54101 15.1867C5.04726 15.8047 5.39179 19.3047 7.9621 19.3758C7.96757 18.9492 8.10429 18.4789 8.45976 18.1234ZM19.9605 6.23984C20.0754 6.23984 20.1848 6.19609 20.2723 6.11406L22.3012 4.08516C22.7004 3.66953 22.0934 3.0625 21.6832 3.46719L19.6543 5.49609C19.3699 5.75313 19.5832 6.25078 19.9605 6.23984ZM25.2652 11.2492H22.3996C21.8199 11.2602 21.8254 12.1187 22.3996 12.1242H25.2652C25.8449 12.1187 25.8394 11.2602 25.2652 11.2492ZM20.2668 17.2703C19.8512 16.8711 19.2441 17.4781 19.6488 17.8883L21.6777 19.9172C22.0879 20.3219 22.7004 19.7039 22.2957 19.2992C22.2957 19.2937 20.2668 17.2703 20.2668 17.2703ZM14.0707 3.80078C14.3113 3.80078 14.5082 3.60391 14.5082 3.36328V0.492188C14.5082 0.251562 14.3113 0.0546875 14.0707 0.0546875C13.8301 0.0546875 13.6332 0.251562 13.6332 0.492188V3.35781C13.6332 3.60391 13.8301 3.80078 14.0707 3.80078Z" fill="url(#paint0_linear_2445_7828)"/>
  <defs>
    <linearGradient id="paint0_linear_2445_7828" x1="3.98738" y1="14.8226" x2="16.215" y2="14.6247" gradientUnits="userSpaceOnUse">
      <stop stop-color="#5877A7"/>
      <stop offset="0.97855" stop-color="#5A92D3"/>
    </linearGradient>
  </defs>
</svg>