<svg width="40" height="40" viewBox="0 0 40 40" fill="none" xmlns="http://www.w3.org/2000/svg">
<rect x="0.5" y="0.5" width="39" height="39" rx="7.5" fill="white"/>
<rect x="0.5" y="0.5" width="39" height="39" rx="7.5" stroke="#DBE3E8"/>
<path fill-rule="evenodd" clip-rule="evenodd" d="M14.6413 17.2985C16.4962 15.4435 19.5038 15.4435 21.3588 17.2985L21.7019 17.6416C22.4775 18.4172 22.9295 19.3963 23.0562 20.4071C23.1076 20.8181 22.8162 21.1931 22.4052 21.2445C21.9942 21.296 21.6193 21.0046 21.5678 20.5936C21.4811 19.9019 21.1729 19.2339 20.6413 18.7023L20.2981 18.3591C19.0289 17.0899 16.9711 17.0899 15.7019 18.3591L12.3588 21.7023C11.0896 22.9715 11.0896 25.0293 12.3588 26.2985L12.7019 26.6416C13.9711 27.9108 16.0289 27.9108 17.2981 26.6416L17.4697 26.4701C17.7625 26.1772 18.2374 26.1771 18.5303 26.47C18.8232 26.7629 18.8232 27.2378 18.5303 27.5307L18.3588 27.7023C16.5038 29.5572 13.4962 29.5573 11.6413 27.7023L11.2981 27.3591C9.44311 25.5041 9.44311 22.4966 11.2981 20.6416L14.6413 17.2985Z" fill="#0F3677"/>
<path fill-rule="evenodd" clip-rule="evenodd" d="M21.6412 13.2985C23.4962 11.4435 26.5037 11.4435 28.3587 13.2985L28.7019 13.6416C30.5568 15.4966 30.5568 18.5041 28.7019 20.3591L25.3587 23.7023C23.5037 25.5573 20.4962 25.5573 18.6412 23.7023L18.298 23.3591C17.5224 22.5835 17.0704 21.6044 16.9438 20.5936C16.8923 20.1826 17.1837 19.8077 17.5947 19.7562C18.0058 19.7047 18.3807 19.9961 18.4322 20.4071C18.5188 21.0988 18.8271 21.7668 19.3587 22.2985L19.7019 22.6416C20.9711 23.9108 23.0288 23.9108 24.298 22.6416L27.6412 19.2985C28.9104 18.0293 28.9104 15.9715 27.6412 14.7023L27.298 14.3591C26.0288 13.0899 23.9711 13.0899 22.7019 14.3591L22.5304 14.5306C22.2375 14.8236 21.7627 14.8236 21.4697 14.5308C21.1768 14.2379 21.1767 13.763 21.4696 13.4701L21.6412 13.2985Z" fill="#0F3677"/>
</svg>
