<svg width="47" height="20" viewBox="0 0 47 20" fill="none" xmlns="http://www.w3.org/2000/svg">
  <path
    d="M46.1 10.2732C46.1 7.03681 44.5323 4.48313 41.5362 4.48313C38.5274 4.48313 36.7069 7.0369 36.7069 10.2479C36.7069 14.0531 38.8562 15.9747 41.9407 15.9747C43.4451 15.9747 44.5829 15.6333 45.4426 15.153V12.6245C44.583 13.0544 43.5969 13.3199 42.3453 13.3199C41.119 13.3199 40.0318 12.8901 39.8928 11.3983H46.0747C46.0747 11.2339 46.1 10.5765 46.1 10.2732ZM39.8548 9.07219C39.8548 7.64366 40.7272 7.04944 41.5236 7.04944C42.2947 7.04944 43.1165 7.64366 43.1165 9.07219H39.8548ZM31.8273 4.48313C30.5882 4.48313 29.7918 5.06464 29.3494 5.46926L29.185 4.68544H26.4038V19.4259L29.5642 18.7559L29.577 15.1782C30.0321 15.5069 30.702 15.9747 31.8146 15.9747C34.0775 15.9747 36.1381 14.1542 36.1381 10.1468C36.1255 6.48055 34.0395 4.48313 31.8272 4.48313M31.0686 13.1934C30.3227 13.1934 29.8802 12.928 29.5769 12.5993L29.5642 7.90908C29.8929 7.5425 30.348 7.2897 31.0686 7.2897C32.219 7.2897 33.0154 8.57913 33.0154 10.2352C33.0154 11.9293 32.2316 13.1934 31.0686 13.1934ZM22.0549 3.73726L25.2281 3.05459V0.488281L22.0549 1.15833V3.73726ZM22.0549 4.69806H25.2281V15.7597H22.0549V4.69806ZM18.6543 5.63353L18.452 4.69806H15.7213V15.7597H18.8818V8.26313C19.6276 7.2897 20.8919 7.46668 21.2838 7.6057V4.69806C20.8793 4.54633 19.4002 4.26819 18.6543 5.63353ZM12.3332 1.95477L9.2486 2.6121L9.23598 12.7383C9.23598 14.6094 10.6393 15.9873 12.5103 15.9873C13.5469 15.9873 14.3054 15.7977 14.7226 15.5701V13.0038C14.3181 13.1682 12.3206 13.7497 12.3206 11.8787V7.39077H14.7226V4.69806H12.3206L12.3332 1.95477ZM3.78727 7.90908C3.78727 7.4161 4.1918 7.22641 4.86193 7.22641C5.82264 7.22641 7.03625 7.51726 7.99705 8.03557V5.06464C6.9478 4.64748 5.91118 4.48313 4.86193 4.48313C2.29553 4.48313 0.588867 5.82322 0.588867 8.0609C0.588867 11.55 5.39278 10.9938 5.39278 12.4982C5.39278 13.0797 4.88718 13.2693 4.17918 13.2693C3.12993 13.2693 1.78984 12.8395 0.727889 12.258V15.2668C1.90362 15.7725 3.09198 15.9873 4.17918 15.9873C6.80869 15.9873 8.61651 14.6853 8.61651 12.4223C8.60389 8.65504 3.78727 9.32499 3.78727 7.90908Z"
    fill="#635BFF" />
</svg>