<svg xmlns="http://www.w3.org/2000/svg" width="28" height="28" viewBox="0 0 28 28" fill="none">
  <g clip-path="url(#clip0_2445_7922)">
    <path d="M15.7371 4.21053C16.699 3.24857 16.699 1.68893 15.7371 0.726973C14.7751 -0.234984 13.2155 -0.234984 12.2535 0.726973C11.2915 1.68893 11.2915 3.24857 12.2535 4.21053C13.2155 5.17248 14.7751 5.17248 15.7371 4.21053Z" fill="black"/>
    <path d="M15.7371 4.21053C16.699 3.24857 16.699 1.68893 15.7371 0.726973C14.7751 -0.234984 13.2155 -0.234984 12.2535 0.726973C11.2915 1.68893 11.2915 3.24857 12.2535 4.21053C13.2155 5.17248 14.7751 5.17248 15.7371 4.21053Z" fill="url(#paint0_linear_2445_7922)"/>
    <path d="M21.2883 23.7112L20.8207 23.8395C20.6392 22.5862 19.3895 13.9558 19.1196 12.0924C20.0186 11.5888 19.8093 10.2543 18.821 10.0303C18.7519 9.55309 18.6928 9.14523 18.6232 8.66409C18.5799 8.36522 18.303 8.15801 18.0036 8.20121C17.7046 8.24452 17.4974 8.5219 17.5407 8.82082C17.58 9.09169 17.6846 9.814 17.7137 10.0151C17.1668 10.0234 15.3511 10.0509 14.6973 10.0609L13.2257 7.91755L14.3494 8.89109L14.6518 8.13838C14.9943 7.28547 14.5806 6.31635 13.7277 5.97373L11.1089 4.92188L7.99247 12.6809C7.64066 13.5569 6.65886 13.9506 5.81361 13.6111L5.68854 13.5609L6.50606 19.0276L4.99751 24.6582C4.80452 25.3783 5.2558 26.1184 5.99517 26.2688L0 27.4796V28.004H28V22.0085L21.2883 23.7112ZM7.64755 25.9351L6.9837 26.0692C7.2328 25.9001 7.42514 25.6449 7.5092 25.3313L9.0913 19.4265C9.13976 19.2459 9.14862 19.057 9.11734 18.8726C9.00709 18.2227 8.60552 15.8558 8.43369 14.8427L8.71648 14.9563L11.4507 19.2505V24.9948C11.4507 25.2952 11.5529 25.5715 11.724 25.7917C10.5313 25.8336 8.8929 25.8913 7.64755 25.9351ZM14 25.7115L13.8316 25.7175C13.9701 25.5107 14.0509 25.2622 14.0509 24.9947V18.8717C14.0509 18.6289 13.9828 18.3856 13.8475 18.1734L11.8692 15.0663C12.1264 14.4259 12.7367 12.9063 12.9073 12.4815C12.792 12.3739 12.6414 12.203 12.5841 12.0558L11.5707 9.45104L13.1957 11.8178C13.403 12.1198 13.7543 12.3074 14.1328 12.3021L18.0363 12.2428C18.0759 12.5159 19.6658 23.4952 19.7579 24.1312C18.5594 24.4602 15.2127 25.3787 14 25.7115Z" fill="black"/>
    <path d="M21.2883 23.7112L20.8207 23.8395C20.6392 22.5862 19.3895 13.9558 19.1196 12.0924C20.0186 11.5888 19.8093 10.2543 18.821 10.0303C18.7519 9.55309 18.6928 9.14523 18.6232 8.66409C18.5799 8.36522 18.303 8.15801 18.0036 8.20121C17.7046 8.24452 17.4974 8.5219 17.5407 8.82082C17.58 9.09169 17.6846 9.814 17.7137 10.0151C17.1668 10.0234 15.3511 10.0509 14.6973 10.0609L13.2257 7.91755L14.3494 8.89109L14.6518 8.13838C14.9943 7.28547 14.5806 6.31635 13.7277 5.97373L11.1089 4.92188L7.99247 12.6809C7.64066 13.5569 6.65886 13.9506 5.81361 13.6111L5.68854 13.5609L6.50606 19.0276L4.99751 24.6582C4.80452 25.3783 5.2558 26.1184 5.99517 26.2688L0 27.4796V28.004H28V22.0085L21.2883 23.7112ZM7.64755 25.9351L6.9837 26.0692C7.2328 25.9001 7.42514 25.6449 7.5092 25.3313L9.0913 19.4265C9.13976 19.2459 9.14862 19.057 9.11734 18.8726C9.00709 18.2227 8.60552 15.8558 8.43369 14.8427L8.71648 14.9563L11.4507 19.2505V24.9948C11.4507 25.2952 11.5529 25.5715 11.724 25.7917C10.5313 25.8336 8.8929 25.8913 7.64755 25.9351ZM14 25.7115L13.8316 25.7175C13.9701 25.5107 14.0509 25.2622 14.0509 24.9947V18.8717C14.0509 18.6289 13.9828 18.3856 13.8475 18.1734L11.8692 15.0663C12.1264 14.4259 12.7367 12.9063 12.9073 12.4815C12.792 12.3739 12.6414 12.203 12.5841 12.0558L11.5707 9.45104L13.1957 11.8178C13.403 12.1198 13.7543 12.3074 14.1328 12.3021L18.0363 12.2428C18.0759 12.5159 19.6658 23.4952 19.7579 24.1312C18.5594 24.4602 15.2127 25.3787 14 25.7115Z" fill="url(#paint1_linear_2445_7922)"/>
    <path d="M4.10918 12.2187L6.0578 13.0014C6.58007 13.2111 7.17337 12.9578 7.3831 12.4356L10.6011 4.42385C10.8108 3.90164 10.5575 3.30828 10.0353 3.09855L8.08671 2.31587C7.5645 2.10614 6.97114 2.35945 6.76141 2.88161L3.54343 10.8934C3.33365 11.4155 3.58697 12.0089 4.10918 12.2187Z" fill="black"/>
    <path d="M4.10918 12.2187L6.0578 13.0014C6.58007 13.2111 7.17337 12.9578 7.3831 12.4356L10.6011 4.42385C10.8108 3.90164 10.5575 3.30828 10.0353 3.09855L8.08671 2.31587C7.5645 2.10614 6.97114 2.35945 6.76141 2.88161L3.54343 10.8934C3.33365 11.4155 3.58697 12.0089 4.10918 12.2187Z" fill="url(#paint2_linear_2445_7922)"/>
  </g>
  <defs>
    <linearGradient id="paint0_linear_2445_7922" x1="14.258" y1="4.14824" x2="12.3837" y2="2.3412" gradientUnits="userSpaceOnUse">
      <stop stop-color="#5382CA"/>
      <stop offset="0.97855" stop-color="#5492DA"/>
    </linearGradient>
    <linearGradient id="paint1_linear_2445_7922" x1="8.30634" y1="22.8977" x2="8.12239" y2="10.6998" gradientUnits="userSpaceOnUse">
      <stop stop-color="#5382CA"/>
      <stop offset="0.97855" stop-color="#5492DA"/>
    </linearGradient>
    <linearGradient id="paint2_linear_2445_7922" x1="5.60714" y1="10.6785" x2="5.44976" y2="4.95688" gradientUnits="userSpaceOnUse">
      <stop stop-color="#5382CA"/>
      <stop offset="0.97855" stop-color="#5492DA"/>
    </linearGradient>
    <clipPath id="clip0_2445_7922">
      <rect width="28" height="28" fill="white"/>
    </clipPath>
  </defs>
</svg>