<svg xmlns="http://www.w3.org/2000/svg" width="26" height="26" viewBox="0 0 26 26" fill="none">
  <g clip-path="url(#clip0_2585_9345)">
    <path d="M5.12332 13.0193C5.67633 14.3046 6.65082 15.3959 8.07574 16.8208L6.99867 17.8979C4.61145 15.5111 3.04688 13.6718 3.04688 10.0039V9.24219C3.04688 7.5593 1.68289 6.19531 0 6.19531V10.1349C0 13.4652 1.37363 16.6588 3.72836 19.0135L6.14453 21.4297V26H12.2383C12.2383 26 12.2383 22.227 12.2383 17.7521C12.2383 17.7521 12.1631 16.8015 9.8602 14.075C8.66328 12.6577 6.70566 12.285 5.12332 13.0193Z" fill="black"/>
    <path d="M5.12332 13.0193C5.67633 14.3046 6.65082 15.3959 8.07574 16.8208L6.99867 17.8979C4.61145 15.5111 3.04688 13.6718 3.04688 10.0039V9.24219C3.04688 7.5593 1.68289 6.19531 0 6.19531V10.1349C0 13.4652 1.37363 16.6588 3.72836 19.0135L6.14453 21.4297V26H12.2383C12.2383 26 12.2383 22.227 12.2383 17.7521C12.2383 17.7521 12.1631 16.8015 9.8602 14.075C8.66328 12.6577 6.70566 12.285 5.12332 13.0193Z" fill="url(#paint0_linear_2585_9345)"/>
    <path d="M19.8551 4.38582C19.8551 1.92649 18.0276 0 15.6946 0C14.6888 0 13.7488 0.350848 12.9996 1.02319C12.2673 0.357957 11.3985 0 10.4214 0C8.08888 0 6.26172 1.92649 6.26172 4.38582C6.26172 7.16468 8.33111 8.76901 13.001 12.6784C18.5369 8.31939 19.8551 6.60415 19.8551 4.38582Z" fill="black"/>
    <path d="M19.8551 4.38582C19.8551 1.92649 18.0276 0 15.6946 0C14.6888 0 13.7488 0.350848 12.9996 1.02319C12.2673 0.357957 11.3985 0 10.4214 0C8.08888 0 6.26172 1.92649 6.26172 4.38582C6.26172 7.16468 8.33111 8.76901 13.001 12.6784C18.5369 8.31939 19.8551 6.60415 19.8551 4.38582Z" fill="url(#paint1_linear_2585_9345)"/>
    <path d="M19.8551 4.38582C19.8551 1.92649 18.0276 0 15.6946 0C14.6888 0 13.7488 0.350848 12.9996 1.02319C12.2673 0.357957 11.3985 0 10.4214 0C8.08888 0 6.26172 1.92649 6.26172 4.38582C6.26172 7.16468 8.33111 8.76901 13.001 12.6784C18.5369 8.31939 19.8551 6.60415 19.8551 4.38582Z" fill="url(#paint2_linear_2585_9345)"/>
    <path d="M22.9531 9.24219V10.0039C22.9531 13.6718 21.3886 15.5111 19.0013 17.8979L17.9243 16.8208C19.3492 15.3959 20.3237 14.3046 20.8767 13.0193C19.2943 12.285 17.3367 12.6577 16.1398 14.075C13.8369 16.8015 13.7617 17.7521 13.7617 17.7521V26H19.8555V21.4297L22.2716 19.0135C24.6264 16.6588 26 13.4652 26 10.1349V6.19531C24.3171 6.19531 22.9531 7.5593 22.9531 9.24219Z" fill="black"/>
    <path d="M22.9531 9.24219V10.0039C22.9531 13.6718 21.3886 15.5111 19.0013 17.8979L17.9243 16.8208C19.3492 15.3959 20.3237 14.3046 20.8767 13.0193C19.2943 12.285 17.3367 12.6577 16.1398 14.075C13.8369 16.8015 13.7617 17.7521 13.7617 17.7521V26H19.8555V21.4297L22.2716 19.0135C24.6264 16.6588 26 13.4652 26 10.1349V6.19531C24.3171 6.19531 22.9531 7.5593 22.9531 9.24219Z" fill="url(#paint3_linear_2585_9345)"/>
  </g>
  <defs>
    <linearGradient id="paint0_linear_2585_9345" x1="3.63055" y1="21.6187" x2="3.32091" y2="11.1596" gradientUnits="userSpaceOnUse">
      <stop stop-color="#5382CA"/>
      <stop offset="0.97855" stop-color="#5492DA"/>
    </linearGradient>
    <linearGradient id="paint1_linear_2585_9345" x1="10.2943" y1="9.87363" x2="10.18" y2="3.17406" gradientUnits="userSpaceOnUse">
      <stop stop-color="#5382CA"/>
      <stop offset="0.97855" stop-color="#5492DA"/>
    </linearGradient>
    <linearGradient id="paint2_linear_2585_9345" x1="10.2943" y1="9.87363" x2="10.18" y2="3.17406" gradientUnits="userSpaceOnUse">
      <stop stop-color="#5382CA"/>
      <stop offset="0.97855" stop-color="#5492DA"/>
    </linearGradient>
    <linearGradient id="paint3_linear_2585_9345" x1="17.3923" y1="21.6187" x2="17.0826" y2="11.1596" gradientUnits="userSpaceOnUse">
      <stop stop-color="#5382CA"/>
      <stop offset="0.97855" stop-color="#5492DA"/>
    </linearGradient>
    <clipPath id="clip0_2585_9345">
      <rect width="26" height="26" fill="white"/>
    </clipPath>
  </defs>
</svg>