<svg width="389" height="362" viewBox="0 0 389 362" fill="none" xmlns="http://www.w3.org/2000/svg">
<circle cx="199.263" cy="157.86" r="157.188" fill="#D9D9D9"/>
<circle cx="199.263" cy="157.86" r="157.188" fill="url(#paint0_linear_2563_6887)"/>
<path d="M175.788 98.9693C174.149 93.0624 175.79 81.3622 178.776 76.0884C181.482 71.3085 186.722 67.6996 191.967 66.304C196.141 65.1944 196.124 66.9644 198.552 66.8973C199.149 66.8807 199.738 66.2437 200.308 66.0551C202.021 65.4881 205.789 67.2493 207.27 68.1129C212.158 70.9613 215.596 74.759 217.015 80.3148C217.9 83.7789 219.514 94.0767 218.923 97.2402C218.84 97.6934 218.775 98.1505 218.699 98.6037L218.896 98.804C219.569 98.7136 220.211 98.4627 220.752 99.0141C221.566 99.8407 221.385 101.261 221.277 102.315C221.049 104.543 220.461 106.568 219.427 108.559C219.109 109.172 218.105 110.502 218.009 111.099C217.997 111.168 218.407 111.693 218.447 111.743C218.503 111.813 218.56 111.881 218.617 111.951C218.62 112.106 218.614 112.261 218.601 112.414C218.589 112.568 218.568 112.72 218.541 112.872C218.513 113.024 218.478 113.175 218.434 113.322C218.391 113.471 218.341 113.617 218.284 113.76C218.227 113.904 218.162 114.044 218.091 114.181C218.02 114.318 217.942 114.452 217.856 114.58C217.772 114.709 217.681 114.834 217.584 114.954C217.487 115.075 217.385 115.19 217.276 115.3C216.96 115.616 216.678 115.788 216.27 115.96C215.951 115.886 215.837 115.941 215.65 115.636C214.617 113.946 216.033 109.735 216.225 107.769C216.344 106.506 216.324 105.246 216.162 103.989C214.647 108.087 214.986 112.366 214.208 116.587C213.611 119.816 211.918 122.49 211.059 125.564C210.069 129.112 210.88 137.342 212.383 140.643C214.142 144.507 221.974 147.817 225.913 149.216C221.813 149.358 217.201 150.253 213.588 152.288C219.075 153.25 224.222 153.272 229.738 152.824C231.891 152.649 235.739 151.972 237.777 152.286C238.165 153.095 237.76 154.167 237.472 154.985C237.179 155.816 236.798 156.647 236.405 157.435C238.426 156.79 240.329 155.864 242.335 155.214C245.609 156.254 247.596 158.057 249.152 161.083C253.728 169.98 252.76 180.265 253.937 189.848C255.019 198.65 257.785 207.498 260.494 215.916C261.485 218.995 262.384 222.216 263.782 225.138C264.411 226.453 265.145 227.531 266.071 228.653C264.672 227.998 263.344 227.475 261.792 228.029C260.298 228.562 259.28 229.89 258.312 231.075C266.88 240.269 276.338 243.986 287.408 249.112C290.19 250.4 292.759 252.517 295.936 252.693C298.072 252.812 300.348 252.302 302.395 251.735C303.735 250.044 305.026 248.286 307.362 248.063C310.741 247.74 313.036 251.129 315.73 252.627C313.932 250.222 311.799 248.033 309.111 246.626C308.17 246.134 306.358 245.827 305.655 245.356C305.326 245.136 305.427 244.886 305.474 244.562C306.115 243.699 306.971 243.17 307.942 242.732C309.103 240.176 309.691 237.448 312.638 236.255C313.2 236.028 313.881 235.93 314.443 236.214C315.076 236.535 315.396 237.192 315.539 237.855C315.892 239.49 315.181 241.151 314.272 242.476C313.686 243.332 312.99 244.092 312.29 244.855C314.956 245.273 317.011 246.618 319.278 248.002C319.078 246.889 318.886 245.77 318.497 244.704C317.524 242.03 314.643 237.642 316.383 234.782C316.665 234.317 316.926 234.228 317.423 234.063C318.592 234.212 319.334 234.886 320.031 235.806C321.196 237.339 325.253 244.691 325.689 246.365C326.644 244.922 328.484 242.211 330.284 241.878C330.695 241.802 331.091 241.878 331.416 242.143C331.732 242.398 331.897 242.633 332.005 243.019C331.754 244.397 331.161 245.648 330.817 246.996C330.426 248.528 330.311 250.186 329.794 251.675C329.605 252.217 329.293 252.949 328.784 253.267C328.295 253.572 327.384 253.464 326.826 253.455C325.76 254.379 325.649 257.35 325.116 258.759C324.196 259.336 323.296 259.813 322.187 259.819C321.756 259.548 321.772 259.195 321.63 258.721C320.836 258.959 320.038 260.582 319.469 261.255C317.251 263.879 308.812 263.036 305.568 263.074C308.864 265.742 310.829 268.283 311.305 272.62C311.755 276.714 311.645 284.023 308.89 287.374C306.428 290.367 302.671 292.456 299.647 294.872C295.974 297.803 292.489 300.95 288.771 303.834C282.72 308.53 276.364 312.528 269.648 316.189C266.065 318.141 262.403 320.139 258.429 321.157C261.079 321.864 264.621 322.337 266.122 324.938C266.822 326.149 267.172 328.027 266.738 329.382C266.502 330.122 266.016 330.521 265.346 330.866L265.364 331.144C266.163 331.8 266.283 332.259 266.387 333.331C266.578 335.294 265.223 336.164 264.216 337.612C263.798 338.215 263.542 338.956 263.075 339.52C262.808 339.841 262.523 340.009 262.13 340.128C261.595 340.007 261.107 339.863 260.555 339.956C260.135 340.52 260.786 341.18 260.301 341.777C259.297 343.012 254.561 344.196 252.987 344.428C248.878 345.033 242.814 344.006 238.541 343.66C230.408 343.001 222.302 343.129 214.171 342.211C209.904 341.73 205.689 341.008 201.454 340.319C198.62 339.858 195.695 339.254 192.816 339.245C189.819 339.235 186.804 339.952 183.87 340.497C180.814 341.095 177.737 341.559 174.64 341.887C168.613 342.508 162.463 342.026 156.496 342.885C151.281 343.634 146.632 345.683 141.265 345.489C139.734 342.927 138.791 344.745 136.687 341.962C137.963 341.054 139.391 340.18 140.539 339.116C139.222 339.498 137.251 340.439 135.976 339.815C135.119 338.882 135.319 337.754 135.351 336.583C134.076 335.232 132.937 334.073 132.981 332.07C133.022 330.275 134.092 328.703 135.422 327.572C136.027 327.06 136.725 326.638 137.413 326.249C125.032 322.018 112.888 316.756 102.063 309.349C98.4091 306.85 95.086 303.931 91.4995 301.35C86.7041 297.897 81.5284 295.326 78.8161 289.782C76.2059 284.448 75.8218 276.8 77.8135 271.216C78.8142 268.409 80.5423 266.008 83.3081 264.704C83.9558 264.398 84.6686 264.188 85.3513 263.971C83.3548 263.913 81.3349 263.896 79.3549 263.616C76.8458 263.262 65.8858 260.77 64.4961 259.089C63.3038 257.645 63.579 254.857 62.6629 253.202C62.3818 253.718 62.4149 254.293 61.9569 254.652C60.8288 253.933 59.3019 252.615 58.4821 251.542C58.4821 251.424 58.4841 251.307 58.4821 251.19C58.4597 249.174 56.611 243.935 57.1041 242.692C57.7099 242.169 58.381 242.157 59.1492 242.218C59.7785 242.267 60.2559 242.401 60.6819 242.9C61.5542 243.921 61.5883 245.794 61.8032 247.096C62.9838 242.699 66.4722 236.995 69.1991 233.276C71.5622 234.768 70.3602 234.354 71.5486 236.12C71.7159 236.369 71.711 236.309 71.925 236.285C73.2242 236.148 75.4046 236.84 76.4043 237.666C77.937 238.935 78.9795 241.271 80.1903 242.869C81.2979 244.331 82.5797 245.689 83.806 247.053C82.6186 247.533 75.5757 248.307 74.4428 247.993C74.4583 246.675 75.0934 245.399 75.5699 244.185C73.9507 242.46 71.8725 240.925 70.6685 238.885C70.6432 238.964 70.6189 239.042 70.5936 239.121C69.4218 242.645 67.7607 243.896 67.9416 247.988C69.0853 247.094 70.3952 246.287 71.9172 246.52C73.0696 246.698 73.6132 247.309 74.3018 248.175C74.7627 249.163 74.5566 249.877 74.2862 250.896C74.8843 250.564 75.4999 250.282 76.1563 250.082C79.9238 248.937 84.0579 249.846 87.1913 252.134C88.4701 253.069 89.6712 254.294 91.0842 255.006C91.1348 255.031 91.1863 255.055 91.2379 255.079C92.3718 254.964 93.4843 254.847 94.5813 254.515C101.188 252.513 111.606 246.134 117.354 242.153C119.414 240.727 121.289 238.986 123.422 237.675C127.111 235.407 131.048 233.795 135.012 232.098C133.421 230.812 132.017 229.881 130.089 229.176C132.4 225.281 132.656 219.972 133.51 215.585C134.905 208.429 137.188 201.319 138.091 194.093C139.482 182.991 138.395 172.013 142.119 161.203C143.377 157.549 145.17 154.926 148.719 153.201C151.281 153.93 153.511 156.068 155.526 157.719C154.882 155.483 154.443 153.449 152.554 151.914C158.22 151.44 163.809 152.578 169.433 153.068C173.088 153.381 176.737 153.317 180.379 152.874C175.543 150.922 170.544 149.647 165.511 148.32C167.477 147.459 169.381 146.474 171.289 145.494C175.026 143.574 178.673 141.921 180.293 137.73C181.774 133.897 182.03 128.081 181.24 124.055C180.629 120.944 179.548 117.99 179.239 114.807C178.745 115.458 178.263 116.124 177.728 116.744C177.13 116.34 176.509 115.951 175.947 115.496C175.831 114.67 175.728 113.864 175.677 113.032C175.597 111.737 175.119 110.597 174.621 109.418C172.592 104.616 172.035 102.724 173.366 97.5933C174.179 98.0387 174.994 98.4782 175.785 98.9645L175.788 98.9693Z" fill="black"/>
<path d="M136.148 332.969C136.324 332.988 136.58 333.009 136.742 333.068C137.157 333.22 137.474 333.483 137.611 333.914C137.784 334.463 137.507 335.118 137.328 335.634L136.632 335.576C136.226 335.336 135.974 335.172 135.816 334.707C135.604 334.085 135.878 333.514 136.149 332.969H136.148Z" fill="white"/>
<path d="M210.705 120.625C210.912 121.27 210.73 122.076 210.576 122.729C209.89 125.645 207.134 129.306 204.588 130.838L204.535 130.563C206.821 127.396 208.351 123.698 210.705 120.626V120.625Z" fill="white"/>
<path d="M278.277 266.647C279.836 266.558 281.372 266.756 282.92 266.922C278.291 271.016 272.102 272.399 266.86 275.493C260.339 279.343 254.447 284.079 248.074 288.131C244.088 290.665 239.917 292.849 235.774 295.114C228.902 298.871 222.028 302.513 214.966 305.898C208.553 308.972 203.117 311.83 196.292 314.061C194.866 314.522 193.173 314.542 191.682 314.655C197.643 312.654 203.405 310.319 208.941 307.306C212.127 305.572 215.202 303.57 218.329 301.725C223.201 298.853 228.076 296.013 232.737 292.804C237.244 289.698 241.1 285.923 245.354 282.516C253.978 275.607 267.063 267.496 278.277 266.646V266.647Z" fill="white"/>
<path d="M104.392 271.103C118.095 270.063 135.631 278.481 146.109 287.101C150.858 291.006 155.06 295.81 160.483 298.799C166.193 301.946 171.993 304.977 177.748 308.044C183.602 311.162 189.447 314.35 195.48 317.116C197.583 318.081 199.649 318.73 201.881 319.312C203.389 319.706 205.166 319.993 206.563 320.693C207.065 320.944 207.316 321.056 207.49 321.596L207.296 321.942C206.624 322.362 205.873 322.409 205.104 322.524C202.838 322.587 200.743 322.472 198.568 321.778C194.327 320.425 190.304 317.917 186.242 316.08C179.35 312.963 172.419 309.95 165.576 306.725C161.581 304.842 157.595 303.037 153.843 300.689C150.065 298.326 146.552 295.601 142.957 292.978C137.498 288.995 131.767 284.993 125.795 281.825C122.942 280.32 120.004 279.006 116.981 277.879C112.665 276.273 105.42 274.294 101.95 271.769L102.03 271.573C102.774 271.246 103.594 271.203 104.393 271.103H104.392Z" fill="white"/>
<path d="M157.462 200.789C158.042 201.55 158.109 204.817 158.27 205.957C158.989 211.074 159.867 216.232 160.855 221.305C161.422 224.219 162.581 227.154 162.879 230.099C163.029 231.587 161.8 233.883 162.232 235.079C162.677 235.313 163.096 235.467 163.33 235.941C163.281 236.721 162.839 237.34 162.462 238.006C162.589 239.392 162.853 240.447 163.483 241.688C162.755 242.936 161.756 244.351 161.435 245.755C161.525 246.031 161.758 246.602 161.596 246.888C161.417 247.204 160.942 247.556 160.695 247.849C160.09 248.57 159.818 249.632 159.477 250.501C158.585 252.771 156.759 256.008 156.522 258.38C156.366 259.937 157.466 261.829 156.964 263.29C156.499 264.64 155.021 265.828 154.365 267.222L154.25 267.473C154.475 268.339 154.746 269.226 154.582 270.121C154.073 270.582 152.972 270.35 152.265 270.48C150.574 270.794 149.836 272.224 148.988 273.541C141.296 273.776 132.469 270.27 125.124 268.089C121.878 267.125 118.597 266.344 115.301 265.577C109.085 264.298 102.869 263.629 96.584 262.827C99.6503 261.855 102.658 260.669 105.762 259.822C109.026 258.933 112.36 258.293 115.636 257.445C120.782 256.113 126.074 254.288 130.871 251.998C133.711 250.642 136.196 248.861 138.84 247.18C140.165 246.338 141.577 245.647 142.914 244.827C144.211 244.031 145.364 243.124 146.172 241.806C147.596 239.485 148.34 236.529 149.178 233.951C151.752 225.848 153.944 217.643 155.752 209.337C156.376 206.57 156.733 203.728 157.416 200.982L157.464 200.79L157.462 200.789Z" fill="url(#paint1_linear_2563_6887)"/>
<path d="M235.206 199.596C236.169 203.007 236.59 206.599 237.534 210.038C240.219 219.827 244.698 231.021 249.372 240.017C250.352 241.903 251.511 243.595 253.048 245.072C260.837 252.553 276.584 257.261 286.812 260.501C280.325 261.2 274.375 263.358 268.302 265.601C263.815 267.215 259.284 268.698 254.712 270.049C252.425 270.705 240.74 273.764 239.099 272.856C238.781 272.679 238.756 271.829 238.567 271.547C238.04 270.764 236.713 270.204 235.897 269.752C235.937 268.894 236.094 267.869 235.866 267.035C235.433 265.448 233.747 264.817 232.432 264.096C231.43 261.094 232.44 260.659 232.398 257.844C232.374 256.205 230.615 250.513 229.868 248.917C229.524 248.18 228.805 247.537 228.335 246.853C228.196 245.667 228.897 245.149 229.046 244.082C229.268 242.489 227.834 240.917 226.889 239.798C227.632 238.644 228.174 237.555 228.6 236.252L227.548 234.592C227.682 232.561 228.025 230.513 228.461 228.528C229.855 222.173 231.878 215.961 233.17 209.573C233.642 207.234 234.148 201.425 235.206 199.594V199.596Z" fill="url(#paint2_linear_2563_6887)"/>
<defs>
<linearGradient id="paint0_linear_2563_6887" x1="199.263" y1="-4.97826" x2="203.105" y2="350.422" gradientUnits="userSpaceOnUse">
<stop stop-color="#AC0FD2"/>
<stop offset="0.166747" stop-color="#210FD3"/>
<stop offset="0.281228" stop-color="#173CA5"/>
<stop offset="0.383417" stop-color="#144F93"/>
<stop offset="0.49059" stop-color="#0C766C"/>
<stop offset="0.583644" stop-color="#02A23F"/>
<stop offset="0.681988" stop-color="#7DC221"/>
<stop offset="0.802064" stop-color="#D9D90A"/>
<stop offset="0.984771" stop-color="#FFFF02"/>
</linearGradient>
<linearGradient id="paint1_linear_2563_6887" x1="130.034" y1="200.789" x2="130.034" y2="273.552" gradientUnits="userSpaceOnUse">
<stop stop-color="#10A63C"/>
<stop offset="1" stop-color="#81C320"/>
</linearGradient>
<linearGradient id="paint2_linear_2563_6887" x1="256.85" y1="199.594" x2="256.85" y2="273.023" gradientUnits="userSpaceOnUse">
<stop stop-color="#10A63C"/>
<stop offset="1" stop-color="#81C320"/>
</linearGradient>
</defs>
</svg>
